<?xml version="1.0" standalone="no"?>
<!DOCTYPE svg PUBLIC "-//W3C//DTD SVG 20010904//EN"
 "http://www.w3.org/TR/2001/REC-SVG-20010904/DTD/svg10.dtd">
<svg version="1.0" xmlns="http://www.w3.org/2000/svg"
 width="981.000000pt" height="988.000000pt" viewBox="0 0 981.000000 988.000000"
 preserveAspectRatio="xMidYMid meet">
<metadata>
Created by potrace 1.15, written by Peter Selinger 2001-2017
</metadata>
<g transform="translate(0.000000,988.000000) scale(0.100000,-0.100000)"
fill="#000000" stroke="none">
<path d="M3500 9873 c-47 -2 -172 -10 -277 -18 -1125 -88 -1967 -427 -2094
-845 -19 -64 -20 -88 -17 -531 l3 -465 39 -79 c195 -394 1016 -701 2101 -786
155 -13 808 -19 819 -9 2 3 11 37 20 77 75 361 429 656 1041 866 336 115 712
193 1160 242 82 9 153 19 157 21 11 7 9 513 -1 598 -73 565 -1402 983 -2951
929z"/>
<path d="M6700 7979 c-1228 -73 -2157 -447 -2240 -900 -6 -31 -9 -152 -8 -270
l3 -214 95 -32 c558 -190 921 -444 1073 -748 56 -112 79 -197 84 -317 l6 -107
71 -15 c801 -176 1861 -176 2685 0 721 154 1193 414 1307 719 17 45 19 90 22
488 2 275 -1 458 -8 495 -38 209 -268 418 -630 570 -430 181 -985 294 -1635
332 -195 11 -627 11 -825 -1z"/>
<path d="M1110 7118 c0 -241 3 -438 8 -438 4 0 63 11 132 25 283 58 530 90
945 121 l90 7 -90 24 c-209 55 -492 163 -625 235 -234 129 -377 262 -437 408
l-23 55 0 -437z"/>
<path d="M2380 6483 c-870 -37 -1628 -223 -2050 -501 -102 -67 -235 -198 -272
-268 -55 -103 -58 -130 -58 -599 0 -469 3 -496 58 -599 15 -28 63 -87 107
-131 703 -708 3245 -869 4568 -290 254 112 439 245 531 383 82 125 81 115 81
642 0 454 -1 466 -22 523 -131 346 -743 636 -1623 771 -395 60 -907 87 -1320
69z"/>
<path d="M9780 5621 c-31 -96 -152 -234 -279 -320 -371 -251 -973 -423 -1741
-497 -224 -21 -804 -30 -1045 -15 -313 19 -715 71 -913 116 -35 8 -70 15 -78
15 -12 0 -14 -97 -14 -695 0 -382 2 -695 4 -695 2 0 59 -11 127 -25 614 -125
1416 -154 2099 -75 926 108 1630 399 1810 750 50 97 51 124 48 830 -3 589 -4
651 -18 611z"/>
<path d="M1 3495 c-1 -573 1 -679 14 -730 93 -355 720 -668 1615 -805 1223
-187 2637 -23 3316 385 236 142 363 287 393 450 7 38 11 284 11 714 l0 656
-40 -80 c-47 -96 -99 -158 -198 -237 -349 -277 -995 -470 -1847 -550 -189 -18
-989 -18 -1180 0 -1116 103 -1900 414 -2064 818 l-20 49 0 -670z"/>
<path d="M9781 3744 c-22 -63 -97 -168 -162 -228 -341 -316 -1117 -546 -2044
-606 -207 -13 -698 -13 -901 1 -294 19 -679 70 -872 114 -35 8 -70 15 -78 15
-12 0 -14 -97 -14 -694 l0 -694 73 -16 c612 -134 1428 -169 2122 -90 962 109
1674 401 1847 756 47 96 49 129 46 827 -3 570 -5 649 -17 615z"/>
<path d="M0 1604 c0 -645 1 -675 20 -737 128 -414 964 -752 2082 -841 1112
-90 2255 88 2850 443 235 141 367 298 389 467 10 80 12 1096 2 1233 l-6 91
-34 -70 c-78 -162 -293 -326 -593 -453 -771 -327 -2018 -431 -3110 -261 -515
81 -993 240 -1275 424 -119 78 -244 208 -288 300 l-37 75 0 -671z"/>
</g>
</svg>
