<svg xmlns="http://www.w3.org/2000/svg" viewBox="0 0 18 14"><defs><style>.cls-1{fill:#f5f5f5;}.cls-2{fill:#d22a20;}.cls-3{fill:#1c936c;}.cls-4{fill:#b5b5b5;}</style></defs><title>2</title><g id="Layer_2" data-name="Layer 2"><g id="Layer_1-2" data-name="Layer 1"><g id="_2" data-name="2"><path class="cls-1" d="M17,5H1V1.36A.32.32,0,0,1,1.3,1H16.7a.32.32,0,0,1,.3.36Z"/><path class="cls-2" d="M16.7,13H1.3a.32.32,0,0,1-.3-.36V9H17v3.64A.32.32,0,0,1,16.7,13Z"/><path class="cls-3" d="M17,5H1V9H17Z"/><path class="cls-4" d="M17,1V13H1V1Zm0-1H1A.94.94,0,0,0,0,1V13a.94.94,0,0,0,1,1H17a.94.94,0,0,0,1-1V1A.94.94,0,0,0,17,0Z"/></g></g></g></svg>