<svg xmlns="http://www.w3.org/2000/svg" xmlns:xlink="http://www.w3.org/1999/xlink" viewBox="0 0 18 14"><defs><style>.cls-1{fill:#006847;}.cls-2{fill:#f5f5f5;}.cls-3{fill:#fcca3e;}.cls-4{fill:#aa8c30;}.cls-5{fill:#9ca168;}.cls-6{fill:#717732;}.cls-7{fill:#fff;}.cls-8{fill:#016848;}.cls-9{fill:#cd202a;}.cls-10{fill:#30c2dc;}.cls-11{fill:#f8c83c;}.cls-12{fill:#f9aa51;}.cls-13{fill:#953220;}.cls-14{fill:#231f20;}.cls-15{fill:#8cbebf;}.cls-16{fill:#0c8489;}.cls-17{fill:#04534e;}.cls-18{fill:url(#radial-gradient);}.cls-19{fill:url(#radial-gradient-2);}.cls-20{fill:#e92736;}.cls-21{fill:#f7e204;}.cls-22{fill:url(#radial-gradient-3);}.cls-23{fill:#a8ac71;}.cls-24{fill:#f1a720;}.cls-25{fill:#78732e;}.cls-26{fill:#c6c7a6;}.cls-27{fill:#1c242f;}.cls-28{fill:#af7029;}.cls-29{fill:#816c2a;}.cls-30{fill:#fcca3d;}.cls-31{fill:#6f5b24;}.cls-32{fill:#404118;}.cls-33{fill:#ab6d29;}.cls-34{fill:#4d2a15;}.cls-35{fill:#d2a567;}.cls-36{fill:#8f4620;}.cls-37{fill:#202020;}.cls-38{fill:#202220;}.cls-39{fill:#4b4139;}.cls-40{fill:#904720;}.cls-41{fill:#803f1d;}.cls-42{fill:#b07229;}.cls-43{fill:#5c3a1d;}.cls-44{fill:#8b441f;}.cls-45{fill:#312317;}.cls-46{fill:#1e2121;}.cls-47{fill:#5c3818;}.cls-48{fill:#171717;}.cls-49{fill:#45392d;}.cls-50{fill:#dbad6c;}.cls-51{fill:#874f20;}.cls-52{fill:#b27129;}.cls-53{fill:#6c3f18;}.cls-54{fill:#f16e16;}.cls-55{fill:#d5d3ca;}.cls-56{fill:#6c4119;}.cls-57{fill:#bf802d;}.cls-58{fill:#f9c83a;}.cls-59{fill:#fcf3d8;}.cls-60{fill:#fdeaaf;}.cls-61{fill:#513625;}.cls-62{fill:#8b5122;}.cls-63{fill:#977c2e;}.cls-64{fill:#ce1126;}.cls-65{fill:#b5b5b5;}</style><radialGradient id="radial-gradient" cx="8949.02" cy="2609.32" r="1" gradientTransform="matrix(0.09, 0.04, 0.04, -0.09, -866.84, -95.32)" gradientUnits="userSpaceOnUse"><stop offset="0" stop-color="#fff"/><stop offset="1" stop-color="#f15770"/></radialGradient><radialGradient id="radial-gradient-2" cx="-3608.12" cy="-10370.66" r="1" gradientTransform="matrix(-0.01, -0.09, -0.09, 0.01, -921.83, -247.41)" xlink:href="#radial-gradient"/><radialGradient id="radial-gradient-3" cx="14077.77" cy="6771.7" r="1" gradientTransform="matrix(0.03, 0.04, 0.07, -0.06, -928.84, -102.1)" xlink:href="#radial-gradient"/></defs><title>23</title><g id="Layer_2" data-name="Layer 2"><g id="Layer_1-2" data-name="Layer 1"><g id="_23" data-name="23"><path class="cls-1" d="M6,13H1.3a.27.27,0,0,1-.3-.3V1.3A.27.27,0,0,1,1.3,1H6Z"/><path class="cls-2" d="M12,1H6V13h6Z"/><path class="cls-3" d="M9.9,7.81v.11l0,0,0-.09Z"/><path class="cls-3" d="M9.89,7.82a0,0,0,0,0,0-.08,0,0,0,0,0,0,.08A0,0,0,0,0,9.89,7.82Z"/><path class="cls-3" d="M10,8,10,7.91l0,0L10,8Z"/><path class="cls-3" d="M10,8a0,0,0,0,1,0,0,0,0,0,0,1,.05,0s0,0,0,0S10,8,10,8Z"/><path class="cls-3" d="M10.66,6.81l.08.09V6.85l-.07,0Z"/><path class="cls-3" d="M10.65,6.83s0,0,0,0a0,0,0,0,0,0,0s0,0,0,0A0,0,0,0,0,10.65,6.83Z"/><path class="cls-3" d="M10.88,6.86l-.13,0V6.85h.11Z"/><path class="cls-3" d="M10.9,6.88a0,0,0,0,0,0,0s0,0,0,0a0,0,0,0,0,0,0S10.88,6.88,10.9,6.88Z"/><path class="cls-3" d="M10.45,7.49l-.08-.12h0l.09.11Z"/><path class="cls-3" d="M10.36,7.38a0,0,0,0,0,0,0s0,0,0,0a0,0,0,0,0,0,0S10.34,7.38,10.36,7.38Z"/><path class="cls-3" d="M10.46,7.5l.09,0v0l-.09,0Z"/><path class="cls-3" d="M10.59,7.55a0,0,0,0,0,0,0,0,0,0,0,0,0,0,0,0,0,0,0,0,0S10.57,7.55,10.59,7.55Z"/><path class="cls-3" d="M8.11,7.78l0,0a0,0,0,0,1,0,0l0,0S8.11,7.76,8.11,7.78Z"/><path class="cls-3" d="M8.11,7.83l0,.13,0,0v-.1Z"/><path class="cls-3" d="M8.14,7.79s0,0,0,0-.06,0-.06,0,0,0,0,0S8.13,7.77,8.14,7.79Z"/><path class="cls-3" d="M7.92,8S8,8,8,8s0,0,0,0,0,0,0,0S7.9,8,7.92,8Z"/><path class="cls-3" d="M8,8h.12l0,0H8Z"/><path class="cls-3" d="M8,8S8,8,8,8,8,8,8,8s0,0,0-.06S8,7.93,8,8Z"/><path class="cls-3" d="M7.61,7.34s0,0,0,0,0,0,0,0a0,0,0,0,0,0,0S7.59,7.34,7.61,7.34Z"/><path class="cls-3" d="M7.61,7.38V7.5l0,0V7.38Z"/><path class="cls-3" d="M7.65,7.35s0,0-.06,0a0,0,0,0,1,0,0s0,0,0,0S7.64,7.31,7.65,7.35Z"/><path class="cls-3" d="M7.4,7.5l0,0s0,0,0,0,0,0,0,0Z"/><path class="cls-3" d="M7.48,7.48h.09l0,0H7.47Z"/><path class="cls-3" d="M7.44,7.43a.05.05,0,0,1,0,.06.05.05,0,0,1-.05,0s0,0,0,0l0,0v0A0,0,0,0,1,7.44,7.43Zm-.07-.7,0,0a0,0,0,0,1,0,0l0,0A0,0,0,0,1,7.37,6.73Z"/><path class="cls-3" d="M7.27,6.91l.05-.12h0l-.06.09Z"/><path class="cls-3" d="M7.31,6.79a.06.06,0,0,1,0-.06s0,0,0,0h0s0,0,0,0a0,0,0,0,1,0,0Zm-.21,0a.08.08,0,0,1,0,0,0,0,0,0,1,0,0s0,0,0,0S7.08,6.76,7.1,6.77Z"/><path class="cls-3" d="M7.15,6.83l.09,0v0l-.1-.09Z"/><path class="cls-3" d="M7.15,6.84a0,0,0,0,1-.06,0s0,0,0,0l0,0a0,0,0,0,1,0,0s0,0,0,0A.15.15,0,0,1,7.15,6.84Z"/><path class="cls-4" d="M9.92,7.82h0v0h0Z"/><path class="cls-4" d="M9.92,7.79a0,0,0,0,1,0,0s0,0,0,0v0s0,0,0,0v0h.05ZM10,8h0a.25.25,0,0,1-.09,0L10,8Zm.06,0,0,0h0a0,0,0,0,1,0,0h0V8h.06Zm.6-1.19h0l0,0v0Zm0,0s0,0,0,0a0,0,0,0,1,0-.05s0,0,0,0v0h.06Zm.25,0h0s0,0,0,0,0,0,0,0h0v0h.06v0h0Z"/><path class="cls-4" d="M10.85,6.85a0,0,0,0,1,0,0l0,0,.07,0v0Zm-.43.56h0v0l0-.06h0l0,0Zm0-.06s0,0-.05,0,0,0,0,0h0v0l0,0h0v0S10.4,7.33,10.4,7.35Zm.14.14h0Z"/><path class="cls-4" d="M10.62,7.51s0,0,0,0a0,0,0,0,1,0,0v0h0l0,0v0Zm-2.48.28s0,0,0,0a0,0,0,0,1,0,0,0,0,0,0,1,0,0h0v0h.09v0Z"/><path class="cls-4" d="M8.11,7.85h0v0h0ZM8,8H8ZM8,8H8V8L8,8A0,0,0,0,1,8,8H8V8H8V8Z"/><path class="cls-4" d="M7.89,8s0,0,0,0h0Zm-.24-.64h0a0,0,0,0,1,0,0,.06.06,0,0,1-.05,0v0h0v0h.08v0h0Zm0,.06h0v0h0Zm-.12.08h0l.08,0H7.49Zm0,0h0s0,0,0,0,0,0,0,0h.07Zm-.06,0h0Zm0-.72a0,0,0,0,1,0,0s0,0,0,0l0,0v0h.08Z"/><path class="cls-4" d="M7.3,6.8h0a.1.1,0,0,1,0,0l0,0h0Zm-.14,0h0s.06.06.06.06l-.09-.07h0Zm0,0h0a0,0,0,0,1,0,0v0h.06Zm0,0h0l0,0v0h0Z"/><path class="cls-5" d="M11,6.58c0,.09-.1.14-.15.18a.26.26,0,0,0-.08.08v.09h0a.11.11,0,0,0,0,0,.8.8,0,0,1,0,.11l.07,0,0,0h0a.52.52,0,0,0-.07.11c0,.06-.06.18-.14.22s-.11,0-.14,0l0,0,0,.05,0,0,0,0h0v0l0,.06h.07a.07.07,0,0,0,0,0,.25.25,0,0,1-.09.17.84.84,0,0,1-.34,0l0,0-.05,0,0,0V8L9.83,8l-.07,0h.06l.08,0a.23.23,0,0,0-.09,0s-.2.11-.28.1-.2-.12-.2-.12l-.05,0-.09,0H9.08V8h.09c.05,0,.07,0,.11,0a.13.13,0,0,0,.09,0l.15-.11.14-.06h.11l0,0a.08.08,0,0,1,0,0h.15l0,0A.27.27,0,0,1,10,7.87l0,0,0-.08v0l.1-.1.07-.07,0-.09h0a.1.1,0,0,1,0,.07.31.31,0,0,1,0,.07.48.48,0,0,1,.11-.06h.06l.05,0,0,0V7.17L10.55,7,10.63,7h0a.1.1,0,0,0,0,0V7s0-.06.07-.07h0s0,0,0-.05a.32.32,0,0,0,0-.08V6.74l0-.06,0-.11V6.43l0,0s0,0,.07.05a.38.38,0,0,1,0,.12l.09-.25a.74.74,0,0,1,.05.16l0-.07v0a.18.18,0,0,1,.05.15ZM9.31,8.2s0,0-.09-.07a.55.55,0,0,0-.14-.05v0l.12.05.07.05Z"/><path class="cls-6" d="M9.89,8A.26.26,0,0,1,10,7.88l.08,0s.05,0,.16-.06.13-.13.16-.14a.15.15,0,0,1,.06,0l-.09.1a.65.65,0,0,1-.15.12.44.44,0,0,1-.19,0,.23.23,0,0,0-.1,0l0,.06A0,0,0,0,1,9.89,8Zm.3-.31a.6.6,0,0,0-.14.18l.14-.13c.05,0,.11-.06.14-.09s0-.05.05-.07l0,0s0,0-.22.13ZM10,7.86s0,0,.06-.06,0,0,0-.07l.14-.14c.07-.08,0-.14,0-.14a.12.12,0,0,1,0,.06s-.17.13-.18.18a.81.81,0,0,0,0,.09A.11.11,0,0,1,10,7.86Zm-.07.26a.24.24,0,0,0-.11,0,2.82,2.82,0,0,0-.3.09c-.08,0-.11,0-.18-.08a.45.45,0,0,0-.23,0h.16c.09,0,.14.12.25.12s.24-.09.3-.09Zm-.6-.06a.25.25,0,0,0,.17,0,.5.5,0,0,1,.21-.13.22.22,0,0,1,.1,0,.39.39,0,0,0-.11,0,.4.4,0,0,0-.15,0A1.31,1.31,0,0,1,9.4,8a.27.27,0,0,1-.1,0Zm0,.13h0l-.07,0a.27.27,0,0,0-.1,0s0,0,0,0l.1,0,.07.06a0,0,0,0,0,0,0s0,0,0,0Zm.07-.09a.24.24,0,0,0,.1,0c.13,0,.21-.1.3-.13s.13,0,.13,0h0a.17.17,0,0,0-.1,0,.69.69,0,0,0-.33.12l-.1,0Zm1.4-1c0,.05-.11.19-.14.23a.23.23,0,0,1-.08.07l-.08.1,0,0s0,0,0,0l0,0,0-.07a.64.64,0,0,0,.13-.1s.1-.19.13-.23a.29.29,0,0,1,.1-.06S10.83,7,10.75,7.1Zm-.22.28s0,0,0-.07,0,0,.07-.09a1.77,1.77,0,0,1,.06-.17,1.06,1.06,0,0,1,.05-.12s0,0-.07.05a.75.75,0,0,0-.11.22.6.6,0,0,0,0,.18Zm0,0s0,0,0-.08a.52.52,0,0,1,0-.22A1.22,1.22,0,0,1,10.65,7a.24.24,0,0,0-.11.07.17.17,0,0,0-.09.16c0,.05,0,.11,0,.16v.09Zm.27-.5,0-.13a.33.33,0,0,1,.07-.1.21.21,0,0,0,.07-.11.8.8,0,0,0,0-.19.07.07,0,0,0,0,0s0,.12,0,.16-.07.14-.1.16a1.13,1.13,0,0,1,0-.14.84.84,0,0,1,0-.14.92.92,0,0,0,0-.17l0,.08a.58.58,0,0,0,0,.19c0,.06,0,.11,0,.15a.15.15,0,0,1,0,.09v0l0,.06Zm-.09-.54a.17.17,0,0,1,0,.09.43.43,0,0,0,0,.16c0,.05.05.06.06.09a.32.32,0,0,1,0,.08.63.63,0,0,0,0-.14l0,0s0-.12,0-.17a.1.1,0,0,0-.05-.07Z"/><path class="cls-5" d="M8.67,8.2s0,0,.08-.07a.62.62,0,0,1,.18-.07s0,0,0,0l-.07,0,0,0-.06,0Z"/><path class="cls-5" d="M8.84,8a.73.73,0,0,0-.15,0h0l0,0,0,0v.07L8.47,8V8l0,0-.12-.12V8h0L8.2,8h0l0,0H8.09l0,0,0,0H8.1s0,0,0,0,.07,0,.11,0-.06.05-.05.08.08,0,.1,0,.07-.08.09-.05-.06.06,0,.1.07,0,.09,0,.09-.11.1-.09,0,.07,0,.09.06,0,.08,0,0-.07.08-.09,0,0,0,0l0,0,.08,0h.11V8a.14.14,0,0,0-.09,0ZM8.15,8l0,0h0l-.06,0,0,0L8,7.85l0-.07v0h0l0-.15v0h0l0,.09,0-.06V7.5l0,0,0,0,0-.12h0a.56.56,0,0,0,0,.07l-.07-.06a.22.22,0,0,1-.07-.08l0-.06,0-.05V7.21l-.06,0V7l-.06.1,0,0V7h0l0,0,0-.06a.22.22,0,0,0,0-.11c0-.06,0-.08,0-.12s0,0,0-.07,0,0,0,0,.09-.08.08-.11-.11,0-.09,0,.1-.06.11-.12-.08,0-.09,0,0-.07,0-.1,0,0,0,0-.07.06-.07.06l-.05,0,0,.07v.07l-.07,0,0,.08V6.6H7.05l0,.06,0,0,0,0h0l0,0V7h0V7s0,0,0,0,0,0,0,.06-.08,0-.08,0,0,0,.05.06.13,0,.11,0-.11,0-.11,0a.11.11,0,0,0,.06.09s.13,0,.13,0-.09,0-.09,0,0,0,.06,0h.07l.11.11.12.08H7.58s.15.08.11.09-.1-.05-.11,0,0,.07.06.09.16,0,.13,0-.13,0-.13,0,.07.1.11.1.07-.06.09,0,0,0,0,0,.05,0,.09,0A.27.27,0,0,1,8.08,8L8.15,8Z"/><path class="cls-6" d="M8.71,8.18h0l.08-.06.1,0h0a.31.31,0,0,0-.11.05l-.08,0s0,0,0,0a0,0,0,0,1,0,0s0,0,0,0Zm.21-.11h0L8.82,8a.12.12,0,0,0-.09.05l0,0,.05,0,.09,0s0,0,.05,0h0ZM7.66,7.55h0l-.06,0-.12-.1a.4.4,0,0,0,.07.07l.1.07h0Zm.89.63,0,0a.11.11,0,0,1,0-.05s0,0,0,0a0,0,0,0,1,0,0l0,0,0,0h0V8a0,0,0,0,1,0,0S8.62,8,8.6,8s0,0,0,0-.05-.11-.13-.11-.05,0-.06,0,.06.08,0,.09-.09-.1-.13-.1-.06,0-.05,0,.05,0,0,.06-.06,0-.11,0l0,0s0,0,0,0L8.09,8A.22.22,0,0,0,8,8.09s0-.05.07-.05h.14l0,0a.08.08,0,0,1,0,0l0,0,0,0h.05l0,0,0,0,.05,0,0,0h0a.1.1,0,0,0,0-.05l0-.06L8.38,8s0,.05,0,.05h0s0,0,0,0a.26.26,0,0,0,0,.07l0,0a.15.15,0,0,0,0-.05h0l0,0,0-.07,0,.07a.15.15,0,0,1,0,.05h0l0,0ZM8,7.87h0A.1.1,0,0,1,8,7.82s0-.11,0-.11,0,.06,0,0,0-.11,0-.15-.06-.07-.07-.06,0,.11,0,.09,0-.1,0-.14,0-.06,0,0,0,.08,0,.08,0,0,0,0,0,0,0,0,0-.05,0,0,0,0,0,0a.08.08,0,0,0,0,0l0,0a0,0,0,0,1,0,0h0l0,0a.28.28,0,0,1,0-.06V7.51a.35.35,0,0,1,0,.07.56.56,0,0,1,0,.07l0,0H7.63l.08,0H7.8l0,0a.21.21,0,0,0,0-.08V7.61a.24.24,0,0,1,0,.07.78.78,0,0,1,0,.09l0,0H7.73a.26.26,0,0,0,.09,0s0,0,.06,0h0l0,0h0l0,0,.06,0H8V7.78a.1.1,0,0,1,0,0,.1.1,0,0,1,0,0ZM7.23,7a.41.41,0,0,0,0-.09.28.28,0,0,0,0-.13v0l0,0,0,0h0l0,0,0,0h0v0l0,0L7.06,6.6l.07,0h0l0,0,0,0a.07.07,0,0,1,0,0h0V6.57l0,0,0-.07,0,0,0,0,0,0,.07,0-.07,0s0,0,0,0v0l0,0s0,0,0,0,0-.07,0-.07v0s0,0,0,0l.09-.08s0,0,0,0,0,0-.06,0,0,0,0,0,0,0,0,.06,0,.07,0,.08,0,0-.06,0,0,0,0,.06.07.09,0,.1S7,6.52,7,6.57s.09.1.1.11,0,0,0,0,0,0,.06,0a.23.23,0,0,1,.06.14A.17.17,0,0,1,7.23,7Zm.3.43a.09.09,0,0,1,0-.08.8.8,0,0,0,0-.16s0,.06-.06,0,0-.11,0-.14,0-.07,0-.06-.05.11-.07.09,0-.07,0-.09,0,0,0,0,0,.06,0,.06,0-.06,0,0,.06.11.06.11l0,0V7a.08.08,0,0,1,0,.05v0H7.22l.06,0,.07,0,0,0,0,0,0,0a.22.22,0,0,1,0-.08.81.81,0,0,1,0,.09.32.32,0,0,0,0,.08H7.35l-.09,0,.09,0,.07,0,0,0,0,0,0,0a.18.18,0,0,1,0,.06l0,0h0a.11.11,0,0,1,0,0Z"/><path class="cls-7" d="M8.86,8.34l0,0h0v0l.14-.14L9,8h.09v.18h0l.15.1v0h-.1L9,8.27l0,0-.08.1-.05,0Z"/><path class="cls-8" d="M9,8V8a.61.61,0,0,1,0,.14s-.08.05-.12.08a.11.11,0,0,0,0,.07h0l0,0a.23.23,0,0,1,.08-.12l.11-.08a.66.66,0,0,0,0-.14H9Zm.18.39v0l0,0,0,0-.08,0A.31.31,0,0,1,9,8.23l0,0,0,.05s.07,0,.09,0l0,0Z"/><path class="cls-9" d="M9,8h0V8a.72.72,0,0,1,0,.13.15.15,0,0,1,0,.08L9,8.31l-.06.07,0,0,0,0s0-.05.09-.08S9,8.18,9,8.12A.52.52,0,0,0,9,8Z"/><path class="cls-9" d="M9.31,8.32H9.23a.2.2,0,0,0-.05-.05s0,0-.09,0L9,8.18l0,0,.06.06.11.06.07.07Z"/><path class="cls-10" d="M9.62,7.73s-.09,0-.08-.06.21-.09.21-.09v0H9.67a.6.6,0,0,1-.21,0h-.1l-.73,0h0c-.1,0-.16-.15-.16-.15h0s0,.07,0,.07A1.67,1.67,0,0,1,8,7.31l0,.07s.19.1.18.13-.06,0-.06,0l0,0s.3,0,.31.11-.08,0-.08,0l0,0v0a.64.64,0,0,1,.21,0l.12.09a2.09,2.09,0,0,0,.5,0c.06,0,.1-.1.21-.13l.15,0Z"/><path class="cls-7" d="M8.11,7.64a0,0,0,0,0,0-.1,0,0,0,0,0,0,.1A0,0,0,0,0,8.11,7.64Z"/><path class="cls-7" d="M8.41,7.4a0,0,0,0,0,.05-.05.05.05,0,1,0-.1,0A0,0,0,0,0,8.41,7.4Z"/><path class="cls-7" d="M9.66,7.79a.06.06,0,0,0,.06,0,.06.06,0,0,0-.06-.06.06.06,0,0,0-.05.06A0,0,0,0,0,9.66,7.79Z"/><path class="cls-11" d="M7.88,7.27s0,.11.09.12.08,0,.09,0a.13.13,0,0,0,0-.06s-.16-.07-.17,0Z"/><path class="cls-7" d="M8,7.33a.09.09,0,0,0-.07,0h0s.07,0,.07,0,0,0,0,0,0,0,0,0Z"/><path class="cls-11" d="M8.44,7.78s0,0,0,.07-.11,0-.12,0,0-.08.07-.09A.09.09,0,0,1,8.44,7.78Z"/><path class="cls-7" d="M8.37,7.8s0,0,0,0,0,0,0,0a0,0,0,0,0,0,0s-.08,0-.07.06h0S8.35,7.8,8.37,7.8Z"/><path class="cls-11" d="M9.73,7.6s.09,0,.11,0,.06,0,0-.07a.07.07,0,0,0-.07,0,.11.11,0,0,0-.08,0A.06.06,0,0,0,9.73,7.6Z"/><path class="cls-7" d="M9.74,7.57a.05.05,0,0,1,0-.05s0,0,0,0a0,0,0,0,0,0,0,0,0,0,0,1,0,0s0,0-.05,0A0,0,0,0,0,9.74,7.57Z"/><path class="cls-12" d="M9.05,7.48H8.87L9,7.72l.11.14,0,0h.08l0,0,0-.23-.11-.12Z"/><path class="cls-12" d="M8.77,7.5v0h.1A.58.58,0,0,1,9,7.59a2,2,0,0,0,.14.29H9l0,0L8.8,7.64l0-.14Z"/><path class="cls-12" d="M8.71,7.47h.06a.31.31,0,0,1,.1.13,1.24,1.24,0,0,0,0,.16A1,1,0,0,0,9,7.88H8.84c-.06,0-.07,0-.09,0l0,0H8.65l0-.08,0-.17V7.48Zm.58,0-.09,0H9l0,.08a.51.51,0,0,0,.06.2l.07.12s.12,0,.12,0h.06V7.51Z"/><path class="cls-12" d="M8.68,7.51s0,0,0,0,0,0,0,0a.06.06,0,0,0-.05-.06s-.07,0-.07.08,0,0,0,.06a.06.06,0,0,0,0,.07.14.14,0,0,0,0,.09s-.05,0-.05.07a.07.07,0,0,0,.07.06s.07,0,.07,0a0,0,0,0,0,0,0s0,0,0,0Zm.64,0s0,0,0,0,0,0,0,0a.05.05,0,0,1,.05,0,.08.08,0,0,1,.07.07.11.11,0,0,1,0,.07s0,0,0,0a.17.17,0,0,1,0,.09.06.06,0,0,1,0,.06.07.07,0,0,1-.06.07s-.07,0-.07,0,0,0,0,0,0,0,0,0"/><path class="cls-13" d="M8.74,7.79h0l0,0a.79.79,0,0,0,.23,0,.77.77,0,0,0,.22,0s0,0,0,0l0,0,0,0v.06l0,0H9.2a2.4,2.4,0,0,1-.38,0l-.06,0,0,0V7.79Zm.5-.3,0,0s0,0,0,0,0,.07,0,.07H9.06l0,0Z"/><path class="cls-14" d="M9.66,7.47a0,0,0,0,1,0,0s0,0,0,0,0,0,0,0a.15.15,0,0,0,0,0Zm.26-.07a.15.15,0,0,1,0,0h0l0,0Z"/><path class="cls-14" d="M10,7.43a0,0,0,0,1,0,0l0,0h0Zm.13-.11h-.07s0,0,0,0Zm-.2-.27a.07.07,0,0,0,0,0s0,0,0,0l0,0Zm-.13.07s0,0,0,0,0,0,0,0,0,0,0,0Z"/><path class="cls-15" d="M9.57,7.28l-.07.08a.73.73,0,0,0,.29.09.51.51,0,0,0,.28-.13.34.34,0,0,0,0-.14.42.42,0,0,0-.14-.09.63.63,0,0,0-.15.1c0,.06,0,.1-.12.1Z"/><path class="cls-16" d="M9.55,7.31s.18,0,.23,0,.11-.13.14-.15l.05,0,0,0,.05,0v.14l-.05,0-.1,0-.1,0H9.74l-.17,0,0,0h0Z"/><path class="cls-17" d="M9.82,7.21h0s0,0,0,0,0,0,0,0Zm.07,0a0,0,0,0,1,0,0,0,0,0,0,1,0,0s0,0,0,0A0,0,0,0,1,9.89,7.26Zm0,.1s0,0,0,0,0,0,0,0,0,0,0,0S9.87,7.38,9.87,7.36Zm-.1,0s0,0,0,0,0,0,0,0,0,0,0,0a0,0,0,0,1,0,0Zm-.14,0v0H9.7v0s0,0,0,0h0S9.63,7.36,9.63,7.35Z"/><path class="cls-15" d="M9.89,7.26a0,0,0,0,1,0,0s0,0,0,0a0,0,0,0,1,0,0l0,0Zm0,.1s0,0,0,0,0,0,0,0,0,0,0,0Zm-.1,0s0,0,0,0,0,0,0,0,0,0,0,0a0,0,0,0,1,0,0Zm.05-.12,0,0s0,0,0,0,0,0,0,0,0,0,0,0Zm-.19.13s0,0,0,0,0,0,0,0,0,0,0,0A0,0,0,0,1,9.63,7.34Z"/><path class="cls-14" d="M9.69,7.31h0s0,0,0,0,0,0,0,0l0,0Zm.12,0,0,0s0,0,0,0,0,0,0,0Z"/><path class="cls-14" d="M9.83,7.31h0s0,0,0,0h0Zm0-.14h0s0,0,0,0,0,0,0,0v0Zm.08.06h0s0,0,0,0h0v0Zm0,.1a0,0,0,0,1,0,0h0s0,0,0,0Z"/><path class="cls-17" d="M10.07,7.26a.07.07,0,0,1,0,.07.45.45,0,0,1-.27.1.77.77,0,0,1-.24-.07h0l0,0,.08,0,.1,0h.12l.1,0,.08,0,.05,0h0V7.27Z"/><path class="cls-14" d="M7.87,6.63s0,0,0,0,0,0,0,0,0,0,0,0v0Zm.19.17s0,0,0,0H8Zm-.42,0a0,0,0,0,0,0,0s0,0,0,0H7.64ZM7.72,7a0,0,0,0,0,0,0,0,0,0,0,0,0,0s0,0,0,0Zm.13.11h0s0,0,0,0,0,0,0,0S7.85,7.09,7.85,7.09Z"/><path class="cls-15" d="M8.06,7A.29.29,0,0,0,8,6.74c-.12-.11-.2-.08-.24,0a.19.19,0,0,0,0,.28.38.38,0,0,0,.29.08Z"/><path class="cls-16" d="M7.69,6.84a.2.2,0,0,1,0-.11A.18.18,0,0,1,8,6.81a.32.32,0,0,1,0,.25H7.94L7.83,7,7.74,7l0-.11Z"/><path class="cls-17" d="M8.05,7A.07.07,0,0,1,8,7a.35.35,0,0,1-.3-.24v.06l0,0,0,.07L7.8,7l.06,0h0l.07,0H8l0-.05Z"/><path class="cls-17" d="M7.94,7S8,7,8,7H8S8,7,8,7,7.94,7,7.94,7Zm0-.1,0,0s0,0,0,0,0,0,0,0ZM7.85,7s0,0,0,0,0,0,0,0l0,0S7.85,7,7.85,7Zm0-.12s0,0,0,0l0,0s0,0,0,0S7.85,6.88,7.85,6.86Zm-.09,0s0,0,0,0a0,0,0,0,1,0,0,0,0,0,0,1,0,0,0,0,0,0,1,0,0Zm0-.1s0,0,0,0,0,0,0,0a0,0,0,0,1,0,0s0,0,0,0Zm.1,0h0s0,0,0,0a0,0,0,0,1,0,0s0,0,0,0Z"/><path class="cls-15" d="M7.77,6.78l0,0s0,0,0,0l0,0S7.77,6.79,7.77,6.78Zm0,.1s0,0,0,0l0,0s0,0,0,0S7.76,6.89,7.76,6.88Zm.11-.11h0a0,0,0,0,1,0,0,0,0,0,0,1,0,0Zm0,.1,0,0,0,0s0,0,0,0S7.85,6.85,7.85,6.87Zm.1,0a0,0,0,0,0,0,0s0,0,0,0l0,0S8,6.84,8,6.85ZM7.85,7a0,0,0,0,1,0,0h0a0,0,0,0,1,0,0s0,0,0,0Zm.09,0H8A0,0,0,0,1,8,7S7.94,7,7.94,7Z"/><path class="cls-14" d="M8,6.81v.06s0,0,0,0v0Zm-.08-.09v.06s0,0,0,0v0Zm-.1,0v0s0,0,0,0v0Z"/><path class="cls-14" d="M7.76,6.75l0,0s0,0,0,0h0S7.76,6.75,7.76,6.75Zm.07.1h0s0,0,0,0h0Zm-.08,0h0s0,0,0,0h0a0,0,0,0,1,0,0Zm.2.06A.1.1,0,0,1,8,7S8,7,8,7V7A.1.1,0,0,1,8,6.91Zm0,0H8S8,7,8,7h0ZM7.84,7h0s0,0,0,0h0A.1.1,0,0,0,7.84,7Z"/><path class="cls-17" d="M7.8,6.67s-.08,0-.1.07a.66.66,0,0,0,0,.11V6.74l0,0,0,0,0,0ZM8.06,7s0,0,0-.08A.71.71,0,0,0,8,6.75l0,0,0,0V7Z"/><path class="cls-14" d="M8.14,6.88l0,0s0,0,0,0h0A0,0,0,0,1,8.14,6.88ZM8,7.2a.08.08,0,0,1,0,0h0s0,0,0,0l0,0Zm.2.08,0,0s0,0,0,0l0,0,0,0Zm0,0a.23.23,0,0,0,0,0h0a0,0,0,0,1,0,0Z"/><path class="cls-15" d="M8.54,7.1a.48.48,0,0,0-.32-.19.18.18,0,0,0-.2.18s.06.13.27.14.24-.09.25-.1S8.54,7.1,8.54,7.1Z"/><path class="cls-16" d="M8.39,7l.07.07s0,0,0,.06A2.12,2.12,0,0,0,8.26,7c-.1,0-.18,0-.19,0a.12.12,0,0,0,0,.14l.24.06.09,0,.06,0v0l0,0v0l0,0L8.39,7Z"/><path class="cls-17" d="M8.23,7s0,0,0,0,0,0,0,0l0,0S8.23,7,8.23,7ZM8.11,7h0l0,0a0,0,0,0,1,0,0,.05.05,0,0,1,0,0Zm.13.07s0,0,0,0a0,0,0,0,1,0,0,0,0,0,0,1,0,0S8.24,7.13,8.24,7.11Z"/><path class="cls-15" d="M8.14,7.14l0,0a0,0,0,0,1,0,0l0,0a0,0,0,0,1,0,0Z"/><path class="cls-17" d="M8.31,7.18l0,0,0,0a0,0,0,0,1,0,0S8.31,7.2,8.31,7.18Zm.08,0s0,0,0,0,0,0,0,0,0,0,0,0,0,0,0,0Z"/><path class="cls-15" d="M8.22,7s0,0,0,0l0,0h0ZM8.16,7l0,0s0,0,0,0h0Zm0,.1a0,0,0,0,1,0,0,0,0,0,0,1,0,0s0,0,0,0Zm.1,0a0,0,0,0,1,0,0s0,0,0,0l0,0Zm.14,0s0,0,0,0v0s0,0,0,0l0,0Zm-.08,0a0,0,0,0,1,0,0,0,0,0,0,1,0,0l0,0Z"/><path class="cls-14" d="M8.36,7.12h0v0H8.36Zm-.08.07h0s0,0,0,0h0Zm-.06-.12s0,0,0,0v0a0,0,0,0,1,0,0l0,0Z"/><path class="cls-14" d="M8.21,7.11h0s0,0,0,0H8.21Zm-.08,0h0v0s0,0,0,0,0,0,0,0Z"/><path class="cls-14" d="M8.12,7.16l0,0h0ZM8.1,7h0v0h0l0,0ZM8.16,7l0,0V7h0Z"/><path class="cls-17" d="M8.5,7.16a.25.25,0,0,1-.19,0A.34.34,0,0,1,8,7.09v0l0,0,.09,0,.11,0h.16l.07,0v0Zm0-.06L8.46,7l-.15-.11.1.05.07,0,0,.06Z"/><path class="cls-14" d="M8.52,7l0,0,0,0s0,0,0,0l0,0Zm.11-.05a.08.08,0,0,1,0,0,0,0,0,0,1,0,0l0,0v0Z"/><path class="cls-14" d="M8.66,6.92l0,0s0,0,0,0l0,0Zm.17,0a.07.07,0,0,1,0,0,0,0,0,0,1,0,0V7h0Zm.05,0,0,0s0,0,0,0l0,0Zm-.31.37s0,0,0,0l0,0s0,0,0,0v0Zm.17.05,0,0s0,0,0,0,0,0,0,0Zm.14,0,0,0s0,0,0,0h0s0,0,0,0Z"/><path class="cls-14" d="M8.92,7.4l0,0s0,0,0,0a0,0,0,0,0,0,0v0Z"/><path class="cls-15" d="M8.5,7.17c0-.06.08-.2.18-.2A1,1,0,0,1,8.87,7,.91.91,0,0,1,9,7.09H9.2l-.1.14,0,0A.21.21,0,0,1,9,7.34a.65.65,0,0,1-.31,0,.17.17,0,0,1-.14-.17Z"/><path class="cls-17" d="M8.5,7.17h0a.14.14,0,0,1,0-.06A.18.18,0,0,1,8.58,7a.16.16,0,0,1,.1,0h0l.09,0,.1,0s0,0,.06,0l.05,0h.2l-.08.13,0,0h0a.21.21,0,0,1-.12.09l-.11,0a1,1,0,0,1-.19,0l-.09,0a.14.14,0,0,1-.05-.1h0a.16.16,0,0,0,0,.11.14.14,0,0,0,.1,0,.84.84,0,0,0,.19,0l.12,0a.2.2,0,0,0,.12-.1h0l0,0,.1-.15H9l0,0L8.88,7,8.77,7H8.68L8.61,7a.26.26,0,0,0-.09.09.23.23,0,0,0,0,.09Z"/><path class="cls-16" d="M9.1,7.2h0S8.77,7,8.69,7s-.17,0-.17.13a.19.19,0,0,0,0,.12,1,1,0,0,0,.19.06h.19L9,7.3l0,0,0,0,0,0Z"/><path class="cls-17" d="M8.66,7.15s0,0,0,0a0,0,0,0,1,0,0s0,0,0,0S8.66,7.13,8.66,7.15Zm0-.08s0,0,0,0,0,0,0,0a0,0,0,1,1-.06,0Zm.17,0s0,0,0,0,0,0,0,0l0,0A0,0,0,0,1,8.86,7.12Zm0,.1a0,0,0,0,1,0,0l0,0s0,0,0,0,0,0,0,0Zm-.08.06s0,0,0,0a0,0,0,0,1,0,0s0,0,0,0a0,0,0,0,1,0,0Zm-.15,0s0,0,0,0h0Z"/><path class="cls-15" d="M8.66,7.15s0,0,0,0a0,0,0,0,1,0,0s0,0,0,0,0,0,0,0Zm.08-.08s0,0,0,0l0,0a0,0,0,0,1,0,0s0,0,0,0Zm.16,0,0,0,0,0s0,0,0,0a0,0,0,0,1,0,0Z"/><path class="cls-17" d="M8.82,7.18a0,0,0,0,1,0,0,0,0,0,0,1,0,0s0,0,0,0,0,0,0,0Z"/><path class="cls-15" d="M8.7,7.25a0,0,0,0,1,0,0s0,0,0,0,0,0,0,0l0,0Zm.11-.08s0,0,0,0a0,0,0,0,1,0,0s0,0,0,0A0,0,0,0,1,8.81,7.17Zm.13,0s0,0,0,0a0,0,0,0,1,0,0s0,0,0,0,0,0,0,0Zm-.08.07,0,0s0,0,0,0,0,0,0,0S8.86,7.26,8.86,7.28Z"/><path class="cls-14" d="M8.87,7.2h.05v0h0Zm0-.14,0,0s0,0,0,0h0Zm-.1.07,0,0v0s0,0,0,0l0,0Zm0,0h0ZM8.67,7l.05,0s0,0,0,0h0l0,0Zm-.09.07.05,0a0,0,0,0,1,0,0s0,0,0,0Z"/><path class="cls-14" d="M8.57,7.15h0s0,0,0,0H8.57Zm.22.14,0,0h0Zm-.16,0,0,0h0s0,0,0,0Z"/><path class="cls-17" d="M9.07,7.24a.37.37,0,0,1-.1.07.38.38,0,0,1-.19,0,.29.29,0,0,1-.17,0,.26.26,0,0,1-.11-.08s0,0,0,0l.05.06.06,0,.09,0h.22l.05,0,0,0,0,0ZM9,7.09s0,0-.07,0A.39.39,0,0,0,8.69,7a.16.16,0,0,0-.15.08S8.59,7,8.59,7l.05,0h.13l0,0h.06l0,0,.06,0Zm.15,0H9v0L9,7.1h.09l.05,0Z"/><path class="cls-16" d="M9,7.58a0,0,0,0,0,0,0h.13l0,0,0-.09,0,0,.08,0,.07,0h0l.06,0,.05,0,0,0,0,0,0-.06-.05-.07-.08,0H9.38l-.08,0-.14,0a.28.28,0,0,0-.11.09A.25.25,0,0,0,9,7.4a1,1,0,0,0,0,.18Z"/><path class="cls-15" d="M9.05,7.55s0,0,0-.09a.58.58,0,0,1,.08-.12h0l0,0a.08.08,0,0,1,0-.06l.07,0h0a0,0,0,0,0,0,0,0,0,0,0,0,0,0v0a.05.05,0,0,1,0,0l0,0s0,0,0,0,0,0,0,0,0,0,0,0a0,0,0,0,0,0,0h0v0s0,0,0,0,0,0,.05,0,0,0,0,0l-.05-.07-.07,0h-.1l-.1,0-.09,0s0,.08,0,.06,0,0-.05,0a.46.46,0,0,0,0,.09.35.35,0,0,0,0,.14s0,.07,0,.07Z"/><path class="cls-15" d="M9.14,7.43l0,0v0s0,0,0,0h0v0h0Zm.16-.12h0a0,0,0,0,0,0,0s0,0,0,0,0,0,0,0v0l0,0Zm.12,0h0a0,0,0,0,0,0,0h0s0,0,0,0Zm-.36,0,0,0s0,0,0,0H9.06Z"/><path class="cls-17" d="M9.18,7.46s0,0,0,0H9.12a0,0,0,0,0,0,0,0,0,0,0,0,0,0Zm.34-.21a0,0,0,0,1,0,0h0s0,0,0,0a0,0,0,0,1,0,0s0,0,0,0A0,0,0,0,0,9.52,7.25Zm-.3.07s0,0,0,0h0l0,0Zm.06,0s0,0,0,0h.05v0H9.28Zm.1-.11s0,0,0,0h0a0,0,0,0,0,0,0Z"/><path class="cls-17" d="M9,7.6s.13,0,.15,0,0-.09.06-.15a.33.33,0,0,1,.19,0s.13,0,.15-.12-.06,0-.09-.1-.09,0-.09,0a.14.14,0,0,0-.11,0s0,0,0,0-.09,0-.1,0,0,0,0,0l0,0V7.2l.11-.07.13-.07h.09l.09,0,0,0a.15.15,0,0,1,0,.06v0a.18.18,0,0,1-.17.12.54.54,0,0,0-.18.06.37.37,0,0,0,0,.15.86.86,0,0,1-.16,0Z"/><path class="cls-14" d="M9.1,7.34h0s0,0,0,0v0Zm.08,0v0l0,0v0Zm0,.13s0,0,0,0,0,0,0,0v0Z"/><path class="cls-14" d="M9.21,7.42l0,0h0s0,0,0,0Zm.11-.16,0,0s0,0,0,0l0,0Z"/><path class="cls-14" d="M9.36,7.32l0,0h0s0,0,0,0h0a0,0,0,0,1,0,0Zm0-.11,0,0a0,0,0,0,0,0,0l0,0,0,0Zm.17,0,0,0s0,0,0,0,0,0,0,0Zm0,.12a0,0,0,0,1,0,0s0,0,0,0h.05Z"/><path class="cls-18" d="M8.33,7S8.41,7,8.41,7s0-.11-.05-.12a.11.11,0,0,0-.09.1C8.26,7,8.29,7,8.33,7Z"/><path class="cls-3" d="M8.38,6.74l0,.11h0l0-.1Z"/><path class="cls-3" d="M8.4,6.7l0,0s0,0,0,0l0,0A0,0,0,0,0,8.4,6.7Z"/><path class="cls-3" d="M10.24,7l-.1.1h0l.07-.1Z"/><path class="cls-3" d="M10.29,6.93s0,0,0,0a0,0,0,0,0,0,0,0,0,0,0,0,.05,0S10.31,6.93,10.29,6.93Z"/><path class="cls-3" d="M7.57,6.4l0,.12,0,0-.07-.09Z"/><path class="cls-3" d="M7.54,6.34a0,0,0,0,0,0,0s0,0,0,0a0,0,0,0,0,0-.05S7.56,6.33,7.54,6.34Z"/><path class="cls-4" d="M8.41,6.7s0,0,0,0,0,0,0,0,0,0,0,0h0v0h0Z"/><path class="cls-4" d="M8.39,6.78s0,0,0,0l0,0,0-.06h0Zm1.91.15s0,0,0,0a0,0,0,0,0-.05,0s0,0,0,0h0V7h0v0h.05Z"/><path class="cls-4" d="M10.24,7h0l0,0L10.24,7V7ZM7.56,6.34h0s0,0,0,0,0,0,0,0h0v0h0Z"/><path class="cls-4" d="M7.6,6.41v.06l0-.07h0Z"/><path class="cls-19" d="M7.62,6.66c0,.06.09.09.13.07a.11.11,0,0,0,0-.14s-.08-.08-.12-.06S7.59,6.61,7.62,6.66Z"/><path class="cls-20" d="M7.56,6.6s0,0,0,0l0,0v0l0,0h0s0,0,0,0-.05,0,0,0h0s0,0,0,0Z"/><path class="cls-20" d="M7.6,6.53l0,0h0l0,0v0s0,0,0,0,0,0,0,0,0,0,0,0l-.06,0h0S7.59,6.52,7.6,6.53Z"/><path class="cls-20" d="M7.73,6.51v0h0v0h0s0,0,0,0v0h.07Zm.55.32s0,0,0,0a0,0,0,0,0,0,0h0v0l0,0h0s-.05,0-.05,0h0l0,0S8.28,6.83,8.28,6.83Z"/><path class="cls-20" d="M8.35,6.81s0,0,0,0h0s0,0,0,0h0v0h0s-.05,0-.05,0,0,0,0,0Z"/><path class="cls-20" d="M8.43,6.88l0,0a0,0,0,0,0,0,0h0s0,0,0,0v0h0v0h0l0,0ZM10.09,7v0h0l0,0V7h0l0,0s0,0,0,0h0S10.09,7,10.09,7Z"/><path class="cls-20" d="M10.15,7l0,0a0,0,0,0,0,0,0h0a0,0,0,0,0,0,0h0s0,0,0,0,0,0,0,0Z"/><path class="cls-20" d="M10.16,7.13h0s0,0,0,0h0s0,0,0,0h-.06v0Z"/><path class="cls-21" d="M7.6,6.55s0,0,0,0,0,0,0,0v0h0Zm0,0s0,0,0,0h0v0h0Zm.07,0v0h0s0,0,0,0a0,0,0,0,1,0,0Zm.65.35h0l0,0,0,0h0Zm0,0a0,0,0,0,0,0,0v0l0,0h0S8.36,6.81,8.36,6.81Zm.06,0v0a0,0,0,0,0,0,0h0ZM10.14,7h0s0,0,0,0h0Zm0,0h0s0,0,0,0h0l0,0Zm0,0h0a0,0,0,0,0,0,0h0Z"/><path class="cls-22" d="M10,7.22s.07,0,.12,0,.07-.09,0-.11-.07,0-.12,0S10,7.19,10,7.22Z"/><path class="cls-23" d="M8.14,5.55H8c-.07,0-.05-.18-.05-.19a.14.14,0,0,1,0-.08A.39.39,0,0,1,8,5.14h0l0,0a0,0,0,0,1,0,0s0,0,0,.05,0,0,0,0L8,5.3s0,0,0,0a.15.15,0,0,0,.08,0l.06,0a.15.15,0,0,1-.06.06L8,5.38s0,0,0,0a.15.15,0,0,0,.1,0ZM7.77,6A.09.09,0,0,1,7.82,6s-.06.1-.05.2,0,.1.14.21A.07.07,0,0,1,8,6.5s0,.22.16.22.14-.08.14-.08L8.2,6.56H8.13a.13.13,0,0,1-.06-.05s0-.11,0-.14-.14-.09-.14-.17.05-.1,0-.2-.14-.14-.14-.14l0,0,0,.1Z"/><path class="cls-24" d="M8.12,5.26s0-.12,0-.12l0,0a.12.12,0,0,1,0,0Z"/><path class="cls-23" d="M8.19,6.36l0,0a.24.24,0,0,1-.07-.22c0-.18.27-.28.29-.35s.08-.11-.13-.27l0,0,.09.07s0,0,0,0a.15.15,0,0,1,0,.07l-.15.11-.07.06A.51.51,0,0,0,8,6a.3.3,0,0,0,0,.16.24.24,0,0,0,.2.23Z"/><path class="cls-25" d="M8.07,6.46v.07H8l0,0H8s0,0,0,0v0l0,0H8l0,0Zm-.13,0v0l0,0H8v0ZM8,6.36l0,0v0H8l0,0Zm0,.3,0,0a.1.1,0,0,1,0,0H8l0,0h0v0l0,0Zm.12-.1,0,0s0,0,0,0V6.6h0l0,0ZM8,6.68l0,0h0v0l0,0H8Zm.11,0,.07,0v0h0a0,0,0,0,1,0,0h0v.08Zm0,.06a.16.16,0,0,0,.12,0,.07.07,0,0,0,.05,0h0l0,0-.1,0ZM8,6.2v0a.08.08,0,0,1,0,0H8l0,0,0,0Zm.05.1,0,0,0,0h.06l0,0Z"/><path class="cls-26" d="M7.91,5.25s0,0,0,0S8,5.3,8,5.23a.15.15,0,0,0,0-.05v0a.07.07,0,0,0-.06,0Z"/><path class="cls-27" d="M8.06,5.17h0Z"/><path class="cls-23" d="M8,5.17l0,0a.17.17,0,0,0,.06,0,.09.09,0,0,1,.07,0s0,0,0,0H8Z"/><path class="cls-25" d="M8.1,6.18v0l0,0,0,0h0ZM8,6.12V6.06A.54.54,0,0,1,8,6L8,6l0,.06h0l0,0H8Zm.11,0v0a.1.1,0,0,1,0,0h0l0,0h0ZM8,6l0,0,0,0V6H8ZM8.13,6l0,0,0,0H8.1V6Zm-.05-.17,0,0,0,0V5.9h0Z"/><path class="cls-25" d="M8.18,6l.05,0-.08,0V6Zm0-.13V5.76l0,0,0,0h0l0,0Zm.07-.08V5.7h0l0,0,0,0h0Zm0,.09,0,0,0,0h-.1v0Zm-.25-.34v0h.09l0,0h0l0,0Zm.17.4,0,0,0,0H8.23v.06Zm.16-.14a.35.35,0,0,0,0-.07.06.06,0,0,0,0,0l-.06,0v0l0,0Z"/><path class="cls-25" d="M8.29,5.69a.07.07,0,0,0,0,0H8.4l0,0,0,0H8.29Zm.1-.05,0,0,0,0,0,.07h.07Z"/><path class="cls-7" d="M7.79,6.13v0a.13.13,0,0,1,.06,0s0,0,0,0v0l-.06,0S7.79,6.13,7.79,6.13Zm0-.15h0s0,0,0,0H7.9l0,0s0,0,0,0S7.81,6,7.81,6Zm.11.11a.14.14,0,0,0,0,0,.11.11,0,0,0-.07,0v0a.08.08,0,0,1,.06,0,.07.07,0,0,1,0,0ZM7.79,6h0a.13.13,0,0,1,0,0l0,0h0s0,0,0,0S7.79,6,7.79,6Zm0-.06s0,0,0,0h0l0,0a.13.13,0,0,0,0,0h0a.18.18,0,0,1,0-.06ZM8,5.43a0,0,0,0,1,0,0,.08.08,0,0,0,0,.07l0,.06H8a.13.13,0,0,1,0,0,.2.2,0,0,0,.05,0h0a.21.21,0,0,1,0-.06h0a.11.11,0,0,0,.05,0h0l-.05,0h0a.11.11,0,0,1,.05,0h0v0h0l0,0a.05.05,0,0,1,0,0h0a.08.08,0,0,0-.06,0,.1.1,0,0,1,0-.06H8l0,0h0l0,0Zm0,.05.05,0a.06.06,0,0,0,0,0l0,.06L8,5.49ZM7.82,6V6a.08.08,0,0,1,0,0s.06,0,.06,0,0,0,0,0a.08.08,0,0,0,0,0s0,0,0,0Zm.54-.28a0,0,0,0,1,0,0h0l0,0v0H8.32v0a.16.16,0,0,0,0,0h0s-.07,0-.07,0h0l.06,0h0s0,0,0,0,0,0,0,0h0v0h.08l0,0h0l0,0h0l0,0H8.28v.06H8.22a.38.38,0,0,0,0,.08h0a.14.14,0,0,1-.06,0h0a.45.45,0,0,0,0,.08.17.17,0,0,1-.07,0h0a1,1,0,0,1,0,.11h0A.07.07,0,0,1,8,6V6a.17.17,0,0,0,.05.1h0L8,6.12v0l0,0h0l0,0v0l.05,0,0,0v0h0l0,0v0h0s0,0,0,0h0l0,0,.08,0h0a.09.09,0,0,1,0-.06l.07,0h0a.24.24,0,0,1,0-.07h.09a.15.15,0,0,1,0-.07H8.4l0,0Zm-.27.38,0,.06H8s0,0,0,0l.06,0,0,0Zm0-.07,0,0h0S8,6,8,6a0,0,0,0,0,.05,0h0A.07.07,0,0,0,8.12,6ZM8.17,6,8.1,6h0a.27.27,0,0,1,0-.1l.07,0A.32.32,0,0,0,8.17,6Zm0-.07a.24.24,0,0,1,0-.07.08.08,0,0,0,.05,0,.28.28,0,0,1,0,.05Zm.15-.06H8.23V5.76h0l.06,0h0A.15.15,0,0,0,8.3,5.84Zm0-.07h0a.26.26,0,0,0,0-.07h0a0,0,0,0,0,0,0l0,0Zm-.19.46h0a0,0,0,0,0,0,0h0L8,6.23H8l.05,0h0v0h0a.1.1,0,0,1,0,0h0v.06h0V6.25h0Zm-.28,0a.08.08,0,0,1,0,0h0s0,0,0,0a.1.1,0,0,0-.06,0v0a.08.08,0,0,1,.06,0Zm.33.48a.14.14,0,0,1-.07,0l0,0a.14.14,0,0,0,.08-.06v0a.13.13,0,0,1-.06.07.44.44,0,0,0,0-.09h0l0,0,0-.07h0l0,0H8a.28.28,0,0,0,0-.08h0l0,.08H8L8,6.51H8l0,0,0,0v0H8a.11.11,0,0,1,0,0v0l.09,0,0,0a.23.23,0,0,0,.09,0l.05,0v0a.07.07,0,0,1,0,0ZM8,6.58a.07.07,0,0,1,0,0h.05a.15.15,0,0,1,0,.06Zm0,.08,0,0h0a.07.07,0,0,0,.06,0,.32.32,0,0,1,0,.07Zm0-.25.09,0v0H8a.07.07,0,0,1,0,0H8s0,0,0,0H8l0,.06v0l0-.08ZM7.9,6.26v0H7.82a.11.11,0,0,0-.05,0v0s0,0,0,0ZM8,6.32l0,0-.06,0a.19.19,0,0,0,0,.07h0a.1.1,0,0,1,0-.06Zm-.09,0a.08.08,0,0,1,0,0h0a.1.1,0,0,0-.06,0l0,0,0,0a.22.22,0,0,1,0-.06ZM8,5.19H8l0,0h0a.11.11,0,0,0,0,.06s0,0,0,0l0,.07s0,0,0,0,0,0,0,0H8v0s0,0,0-.07l0,0a.35.35,0,0,1,0-.06H8a.07.07,0,0,0,0,0,.08.08,0,0,1,0,0,.1.1,0,0,0,.06,0Z"/><path class="cls-25" d="M8.13,5.43H8.07v.05Zm-.07,0H8l0,0v0H8Zm0,.12L8,5.49l0,0h.07Zm.18,1.12h0a.39.39,0,0,1-.12,0,.11.11,0,0,1-.08,0,.1.1,0,0,1,0-.05s0-.06,0-.09a.3.3,0,0,0,0-.1l-.1-.08a.2.2,0,0,1-.07-.13v0a.2.2,0,0,1,0-.11.32.32,0,0,0,0-.09h0a.09.09,0,0,0,0,0l0,0h0l0,0,0,0h0a.41.41,0,0,1,0,.08.53.53,0,0,0,0,.12v0a.2.2,0,0,0,.08.14.73.73,0,0,1,.09.08.42.42,0,0,1,0,.12s0,0,0,.07l0,0,.09,0a.26.26,0,0,0,.13,0Z"/><path class="cls-25" d="M8.18,6.55h0a.06.06,0,0,1-.05,0,.11.11,0,0,1,0-.06.13.13,0,0,0,0-.08S8,6.34,8,6.31s-.07-.06-.07-.09h0a.24.24,0,0,1,0-.08.3.3,0,0,0,0-.1V6a.13.13,0,0,0-.08-.11l-.07,0h0l.08,0a.15.15,0,0,1,.06.1V6a.3.3,0,0,1,0,.1.19.19,0,0,0,0,.08h0a.19.19,0,0,0,.08.1A.2.2,0,0,1,8,6.4s0,.06,0,.08a.09.09,0,0,0,0,.07l.05,0h0Z"/><path class="cls-23" d="M8.41,6.36a.05.05,0,0,1,0,0,.29.29,0,0,1,0,.08l-.06,0,0,0,0,0Z"/><path class="cls-11" d="M7.66,5.93s0,0,0,0a.08.08,0,0,1,0,0,0,0,0,0,1,0,0s0,0,0,0,0,0,0,0,0,0,0,0Z"/><path class="cls-11" d="M7.71,6s0,0,0,0,0,0,0,0a0,0,0,0,1,0,0,0,0,0,0,1,0,0s0,0,0,0l0,0S7.71,5.93,7.71,6Z"/><path class="cls-11" d="M7.77,6a0,0,0,0,1,0,0s0,0,0,0,0,0,0,0,0,0,0,0,0,0,0,0,0,0,0,0,0,0,0,0A0,0,0,0,0,7.77,6Z"/><path class="cls-28" d="M8.34,6.35a.3.3,0,0,1-.05-.07l-.06-.06-.06,0,0-.06V6.06l0,0,0,0s-.12,0-.06.26.09.11.09.11h.14Z"/><path class="cls-29" d="M8.29,5.61h0v0h0a.52.52,0,0,1-.19.17l-.1.1a.34.34,0,0,0,0,.16H8a.29.29,0,0,0,.11.24.26.26,0,0,0,.13,0h.19v0l0,0h0a.05.05,0,0,0,0,0v0H8.22a.3.3,0,0,1-.13,0A.26.26,0,0,1,8,6.09H8a.38.38,0,0,1,0-.16.64.64,0,0,1,.15-.13.32.32,0,0,0,.14-.14h0s0,0,0,0a0,0,0,0,0,0,0Z"/><path class="cls-7" d="M8.44,6.39s0,.05,0,.05l0,0h0l0,0v0l0,0,0,0Z"/><path class="cls-30" d="M8.55,6.42l-.07,0,0,0s0,0,0,0l0,0H8.33l-.12-.13h.26l0,0,0,0,0,0,0,0v.09Z"/><path class="cls-28" d="M8.55,6.42h-.1v0a0,0,0,0,1,0,0v.08l.07,0,0,0,0-.08Z"/><path class="cls-30" d="M8.54,6.38v0h0v0Zm-.07-.75v0l0,0,0,0,0,0H8.3l0,0a.44.44,0,0,1,.13.14l.07,0h0Z"/><path class="cls-28" d="M8.41,5.69c0,.06,0,.09,0,.1l0,0,0-.06-.07,0A.17.17,0,0,1,8.41,5.69Z"/><path class="cls-29" d="M8.51,6.52l0,0a0,0,0,0,0,0,0h0l0,0,0,0h0Z"/><path class="cls-31" d="M8.55,6.46l0,0-.06,0,.07,0,.05-.05Z"/><path class="cls-32" d="M8.56,6.52h0l0-.07v0h0Z"/><path class="cls-33" d="M9,4.83s-.18,0-.18.12,0,.06.05.07A.34.34,0,0,1,9,5.09a.16.16,0,0,1,.06.13.24.24,0,0,1,0,.07l0,.19,0,.14.12-.07.07-.21L9.25,5Z"/><path class="cls-34" d="M9.14,5.57a.14.14,0,0,0,.08-.07s-.06-.08-.07-.08a.14.14,0,0,1,0,0s0,0,0,0,0-.06,0-.08,0,0,0-.06l-.06,0h.07s0,0,0,0a.51.51,0,0,0,0-.09.07.07,0,0,0-.05,0H9.12l.07,0s0,0,0,0l0-.08,0,0H9.09a.05.05,0,0,1,.05,0h0l0,0L9.05,5H9A0,0,0,0,1,9,5H9S9,5,9,5H8.82l0,0a.05.05,0,0,1,0,0s0,0,0,0l0,0H9L9.19,5l.09.08.06.16,0,.27-.13.11H9.13Z"/><path class="cls-35" d="M9,4.9a.1.1,0,0,1,0,0s0,0,0,0a.17.17,0,0,0-.12,0s0,.1,0,.1l0,0H9l0,0h0s0,0,0,0Z"/><path class="cls-36" d="M9.17,5.59l-.05,0,0,.18.18.31.09,0,0,0h0s0,.07.07.08,0,0,.07,0a1.55,1.55,0,0,1,.13.17V6.26l0-.09,0-.06h.07l.05,0,0,0,0,0v.07l0,.06,0,0V6.3l-.05-.15,0-.05.05,0,0,.06,0,0v.1l0,0h0v0l0-.1V6.12s0,0,0,0l0,.06v.1l0,.1,0,.09,0,.06,0,0v0l0-.4v0l0,0v.28l0,.09,0,.06V6.53l0-.42v0l0,0,0,0,0,.1v.34l.08-.71h.05l0,0-.09-.13,0-.12-.09-.17-.17-.2L9.92,5.1l-.05,0V5l0,0H9.83L9.77,5l-.11-.08-.11,0-.07,0-.17,0-.16,0H9s0,0,0,0a.11.11,0,0,0,0,.06A.12.12,0,0,0,9,5L9.18,5l.05,0,0,0v0l0,.27-.07.16-.05,0Z"/><path class="cls-33" d="M9.35,6a0,0,0,0,0,.07,0s0-.15,0-.16h0l0,.06a.11.11,0,0,1,0,.08.2.2,0,0,1-.05.09H9.35Z"/><path class="cls-34" d="M10.38,6.68l0-.11V6.48a2.09,2.09,0,0,0,0-.24V6.16l0,0,0,0h0a.34.34,0,0,0,0-.11,1.16,1.16,0,0,0-.09-.21h0l0,0,0,0,.1,0h.05l0,.07a1.55,1.55,0,0,1,0,.18.38.38,0,0,1,0,.18,1.68,1.68,0,0,0,0,.29.13.13,0,0,1,0,.06Z"/><path class="cls-36" d="M10.38,6.35a.14.14,0,0,0,0-.06s0-.31,0-.34a.18.18,0,0,0-.1-.06l0,.09,0,0a.43.43,0,0,0,0,0,.38.38,0,0,1,0,.15Z"/><path class="cls-34" d="M10.23,6.52a1,1,0,0,0,0-.22c0-.1,0-.11,0-.13A1,1,0,0,1,10.15,6a.49.49,0,0,0-.05-.16s0-.05,0,0v0h0V5.77h0v0l.05,0,.11.07.05.21,0,.14v.42Zm.06-.62.05,0,0,0-.05,0,0,0Z"/><path class="cls-34" d="M10.09,6.47a.24.24,0,0,0,0-.1,1,1,0,0,0,0-.22A.36.36,0,0,1,10,6a.52.52,0,0,0-.05-.12l0-.06V5.77l.09,0,0,0,.05.22,0,.06,0,.09,0,.2v.18ZM10,6.38a.83.83,0,0,0,0-.12.35.35,0,0,0-.05-.12L9.83,6l-.1-.12V5.8l0,0,.06,0,0,.1,0,.06,0,.06,0,0,0,.1v.06l0,.08v0l0,0Zm-.08,0,0,0a.12.12,0,0,0,0-.05l0-.1s0,0,0,0a1.13,1.13,0,0,1-.11-.11L9.64,6,9.59,6v-.1a.22.22,0,0,0,.05.06h0l.07.13,0,0,.06,0,0,.06,0,.06,0,.08v.06Zm-.13,0s0,0,0-.08,0,0,0-.06a.34.34,0,0,0-.09-.12S9.54,6,9.54,6V6l0,0,.12.12,0,.06,0,.08v0l0,0Zm.4-.58s.07.09.09,0a.29.29,0,0,0,0-.12,1.26,1.26,0,0,0-.1-.15L10,5.33l-.09,0,0,.06a.81.81,0,0,1,.15.2.44.44,0,0,1,.07.23ZM9.73,5.2a1.83,1.83,0,0,1,.25.27c.1.14.14.23.12.25s-.09,0-.11,0a1.2,1.2,0,0,0-.14-.21.44.44,0,0,0-.14-.13l-.06-.1Zm-.08.31.15.13a.37.37,0,0,1,.08.11l0,0s0,0,0,0h0l-.29-.3Zm0,0a.58.58,0,0,0,.08.1l.1.1,0,.07s-.13-.1-.13-.08a.22.22,0,0,0,0,.08l0,0,0-.08,0-.07,0-.1Z"/><path class="cls-34" d="M9.24,5.83s.07.06.1,0a.15.15,0,0,0,0-.13s.1.14.12,0-.05-.12-.05-.12l0,0,.05.08a.08.08,0,0,0,0-.07.32.32,0,0,0,0-.13l0,0s.09,0,.09,0-.07-.11-.07-.11.06,0,.06,0-.09-.06-.09-.08,0-.06.06,0,.09,0,.11,0,0,0,0,0l0,0-.08,0L9.49,5H9.42l0,.06,0,.14v.06l0,.15,0,.12,0,0v0l0,.06,0,0-.05.07,0,.06Z"/><path class="cls-33" d="M9.72,6.09A.31.31,0,0,0,9.67,6a.19.19,0,0,0-.1,0l.1.11Zm.14,0A.42.42,0,0,0,9.79,6s-.06-.09-.07-.09h0V6l.07.06S9.84,6.12,9.86,6.12Zm.12,0A.71.71,0,0,0,9.92,6a.32.32,0,0,0-.08-.11v.08l0,.08,0,.07Zm.09,0s0-.16,0-.2a.11.11,0,0,0-.07,0V6L10,6Zm.09-.26s0,0,.05.07a1,1,0,0,1,.07.21h0L10.16,6V5.81Z"/><path class="cls-35" d="M9.51,6s.05,0,.05,0-.06,0-.06-.08h.06s-.05-.1,0-.11.07.08.07.08,0,.06,0,.08S9.51,6,9.51,6Zm.12-.11H9.7s-.06-.08-.06-.08l0,0s.06,0,.06,0a.36.36,0,0,1,0-.09h0l.07.08a.18.18,0,0,1,0,.13c0,.06-.12,0-.11,0ZM10,5.77s0,0,0-.06h0l-.06,0h0l0,.06Z"/><path class="cls-35" d="M9.74,5.8l.12,0-.09-.1v0h.05s0,0,0,0,0,.07,0,.06V5.72s.05,0,.06,0,.07.06.08,0v0s0,.06,0,.07a.08.08,0,0,1-.06,0l0,0,0,0s0,.06,0,.07a0,0,0,0,1,0,0h0l-.06,0ZM10,5.73s.13.07.14.06a1.52,1.52,0,0,0,0-.21s.11.2.06.23-.05,0-.05,0l-.06,0-.06,0Zm.35.31h0V6Zm-.12-.41h0a0,0,0,0,1,0,0h0v0Zm0-.06h0l0,0h0v0h0Zm.11.36,0,0,0,0h-.07v0Zm-.2-.57h0s0,0,0,0l0,0,0-.06ZM9.92,5.2h0l0,0a.16.16,0,0,1,0,.1l-.09-.06,0-.06Zm-.08,0s.06,0,.06,0a.11.11,0,0,0,0-.06l-.07,0,.05,0ZM9.68,5.1s0,0,0,0S9.78,5,9.81,5s0,0,0,0,0,0,0,0l-.11,0h0l0,0Zm0-.11s0,0-.05,0,0,0,0,.09v.08h0v0h0V5h0V5Zm-.14,0a.45.45,0,0,0-.14-.1s.1.07.12.11,0,.09,0,.1,0,0,0,0h0V5l0,0h0Zm-.14-.06a.44.44,0,0,0-.25-.08c-.09,0-.14,0-.12,0s.05.07.12.07h.13A.15.15,0,0,1,9.35,5s0,0-.06-.07l-.06,0s0,0,0,0,.12,0,.13.08a.2.2,0,0,1,0,.08s0,0,0,0V5s0,0,0,0a.09.09,0,0,0,0,0l0,0Zm-.24.71a.2.2,0,0,0,.13-.17,1,1,0,0,0-.06-.31s0,0,0,0a.61.61,0,0,1,.06.26.19.19,0,0,1-.08.19.15.15,0,0,1-.1,0v0Zm.13.29s0,0,0,0,.1,0,.1-.1,0-.06-.05-.08v0h0v0s0,0,0,0,.06,0,.05-.07-.05-.07-.05-.09,0,0,0,0h0v0a0,0,0,0,0,0,0s.06-.05.05-.07l0-.06v0h.06s.06,0,.06,0a.09.09,0,0,0,0,0h0l0,0v.06l0,0,0,0h0l0,0v0l0,0-.05,0v0l0,0-.06,0h0v0l0,0-.06,0h0l0,0Z"/><path class="cls-35" d="M9.59,5.35s.09,0,.09,0-.09-.11-.1-.13a0,0,0,0,1,0,0l0,0s.07,0,.08,0,0-.06,0-.06h.05v0l0,.14s0,.06,0,.06a.11.11,0,0,1-.09,0Zm.09.74a.1.1,0,0,0,0,0L9.59,6s.07.09.07.09Zm.14,0L9.76,6S9.72,6,9.7,6s0,.07,0,.07l.08.08Zm.13,0L9.9,6s0-.08-.06-.1,0,0,0,0l0,.08.05.07Zm.1-.06a.75.75,0,0,0,0-.12s0-.08,0-.08v.08Zm.2,0,0-.12s-.05-.1-.06-.1l0,.07,0,.12Zm.18-.21a.2.2,0,0,0-.1-.06.37.37,0,0,0-.13,0h0l0,0,.07,0,.09,0Z"/><path class="cls-37" d="M9.71,5.92a.17.17,0,0,0,0,.09l.11.12s0,.08.05.14,0,.11,0,.13,0,0,0,0l0,0V6.35a.59.59,0,0,0-.07-.2L9.68,6c0-.06,0-.07,0-.07Z"/><path class="cls-37" d="M9.87,6.3a.26.26,0,0,1,0-.1.38.38,0,0,0-.11-.11H9.67L9.57,6V6l.11.12a.46.46,0,0,1,.07.14s0,0,0,.06,0,0,0,0,0,0,0,0,0,0-.05-.09a.69.69,0,0,0-.07-.15h0s.1.08.11.1a1,1,0,0,0,0,.11l.05.09h0l-.05-.1Zm-.13-.5.08,0h0A.34.34,0,0,0,9.9,6a.24.24,0,0,0,.08.08.7.7,0,0,0,0,.2.33.33,0,0,1,0,.2s0,0,0-.1a1.56,1.56,0,0,0-.05-.16.23.23,0,0,0-.06-.11s0,0,0,0a.3.3,0,0,1,.06.12c0,.06,0,.12,0,.12a0,0,0,0,0,0,0,1.1,1.1,0,0,1,0-.11.53.53,0,0,0,0-.11s0,0-.06-.09a.45.45,0,0,1-.06-.13v0l0,0s0-.06,0-.06Z"/><path class="cls-37" d="M9.89,5.78l.06,0H10A.33.33,0,0,0,10,6a.42.42,0,0,0,.09.11s0,0,0,.17,0,.15,0,.21a1,1,0,0,1,0,.25s0-.13,0-.18a.48.48,0,0,1-.07-.18c0-.13,0-.16,0-.21a.16.16,0,0,0,0-.06.07.07,0,0,1,0,0s0,.15,0,.21a.62.62,0,0,0,.07.18s0-.15,0-.24a.61.61,0,0,0,0-.19A1.05,1.05,0,0,1,10,6s0-.13,0-.15,0,0,0,0a.1.1,0,0,1-.06-.06Z"/><path class="cls-37" d="M10,5.73l.08.06a.1.1,0,0,0,.08,0,.35.35,0,0,0,0,.19.49.49,0,0,0,.06.09s0,.27,0,.35,0,.37,0,.37,0-.21,0-.26,0,0,0-.07,0-.2,0-.29,0-.08,0-.08a.16.16,0,0,1,.05.07c0,.06,0,.25,0,.29a.28.28,0,0,1,.06.09s0-.36,0-.39a1.82,1.82,0,0,1-.09-.24V5.84s0,0-.07,0L10,5.73Z"/><path class="cls-37" d="M10.18,5.77s0,0,.1.07a.9.9,0,0,0,.15,0,.83.83,0,0,1,.05.26.66.66,0,0,1-.05.25c0,.12,0,.37,0,.41a.05.05,0,0,0,0,0s0,.07,0,.07,0,0,0-.05a1.32,1.32,0,0,0,0-.16,1.31,1.31,0,0,0,0-.15c0-.08,0-.34,0-.37s-.05-.08-.05-.08a.23.23,0,0,1,.06.07s0,.32,0,.38,0,0,0,0,0-.17,0-.25A.83.83,0,0,0,10.32,6l0,0,0,0h0a.69.69,0,0,1,0,.2,2.81,2.81,0,0,0,0,.42s0-.16,0-.28a.61.61,0,0,0,0-.25.42.42,0,0,0-.05-.23s-.09,0-.14-.05a.17.17,0,0,1-.09-.08Zm-.89.14h0s.09-.06.09-.08v0h0s.07,0,.07-.06V5.66h0s.06,0,.06-.07a.14.14,0,0,0,0-.07s0,0,0,0,.07,0,.07-.06,0-.07-.06-.08h.06a.06.06,0,0,0,0-.06.19.19,0,0,0-.06-.1s.06,0,.08,0,0,0,0-.06a0,0,0,0,0,0,0,.08.08,0,0,0,.07,0l.1,0s-.06,0-.07.06,0,0,.06,0h0a.87.87,0,0,1,.15.13l0,0h0l.09.12,0,0h0l.09.15a2.54,2.54,0,0,0-.17-.24c-.1-.1-.12-.11-.12-.1s.07.1.11.16a1.19,1.19,0,0,1,.07.15,1,1,0,0,0-.22-.31l-.16-.14s0,.09,0,.11.11.09.19.19.18.26.18.26a1.38,1.38,0,0,0-.2-.25c-.12-.13-.17-.16-.18-.16s0,0,0,0-.05,0-.05,0l.13.12h.05l0,0H9.8a.53.53,0,0,0,.1.12h0l.05,0-.05,0h0a.7.7,0,0,0,.06.09l-.18-.19c-.09-.07-.12-.09-.13-.08a0,0,0,0,1,0,0h0l.13.14.1.11a1,1,0,0,1-.11-.11l-.1-.07v0l.11.14L9.6,5.64l0,0s0,0,0,0,.18.18.17.19-.14-.13-.15-.12l.06.13a1,1,0,0,1-.09-.13s0,0,0,0-.05,0-.05,0L9.56,6l-.13-.12a0,0,0,0,0,0,0l0,.09s0-.08-.05-.07,0,0,0,0h0l0,0A.21.21,0,0,1,9.4,6l0-.06,0,0h0v0Z"/><path class="cls-37" d="M10.43,5.87h0s0,0-.05,0-.13-.3-.23-.44a1.46,1.46,0,0,0-.31-.31,1,1,0,0,1,.32.31c.14.21.18.37.22.41s.08,0,.07.07,0,0,0,0h0Zm-1.21,0h0l.06-.06,0,0a.08.08,0,0,1,0-.05s0,0,0,0,0,0,0,0,.08-.06.08-.08H9.33a.08.08,0,0,1,0,0,.07.07,0,0,0,0,0h.05a.26.26,0,0,0,0-.09h0a.15.15,0,0,1,0-.06l0,0a0,0,0,0,0,.06,0s0-.09,0-.11H9.39a.15.15,0,0,1,0-.05.07.07,0,0,0,.05,0s0,0,0,0a.11.11,0,0,0,0-.08s0,0,0,0h0a.07.07,0,0,1-.06,0s0,0,.06,0a0,0,0,0,0,0,0s0,0,0,0,0,0,0,0,0,0-.05,0a.07.07,0,0,1-.05,0l.05,0s0,0,0,0,0,0-.06-.08l-.08-.07.1.07L9.39,5s0,0,0,0a.18.18,0,0,0,0-.06l0-.06A.23.23,0,0,1,9.44,5a.18.18,0,0,1,0,.06.15.15,0,0,0,.1,0s0,0,0-.06l0,0,0,0s0,0,0,0l0,0,.06,0,.06,0s0,0,0-.06a.2.2,0,0,0,0-.06.2.2,0,0,1,0,.06v.06l0,0H9.66L9.46,5s.07.06.11.1a.14.14,0,0,1,0,.07l0,0s-.11-.06-.12,0l0,0,0,0s.12.09.11.1l0,0-.06,0s0,0,0,0,0,0,0,0,.07.06.07.08,0,0,0,0,0,0,0,0l-.05,0,0,0,0,.07s0,0,0,.05a.11.11,0,0,1,0,.06l-.05,0,0,0,0,.06a.05.05,0,0,1,0,0s0,0,0,0,0-.06-.05-.06l0,.07s0,0,0,0,0,0,0,0l0,0Z"/><path class="cls-37" d="M9.88,5.07a0,0,0,0,1,0,0s0,0,0,0H9.84s0,0-.12-.06a1.23,1.23,0,0,0-.59-.18c-.11,0-.16,0-.17.06s0-.05.15-.05a1.23,1.23,0,0,1,.6.18s.07.07.13.06H9.9a.08.08,0,0,1,0,0v0Zm-.63,0h0A.43.43,0,0,0,9.18,5,.58.58,0,0,0,9,4.93s.15.07.2.11l.07.08Z"/><path class="cls-35" d="M9.25,5.38l0,0-.06,0,.07,0a.15.15,0,0,1,0,0Zm0-.14-.05,0H9.12a.08.08,0,0,1,.07,0,.07.07,0,0,1,0,0Zm0-.11a.07.07,0,0,0,0,0l-.07,0h.08s0,0,0,0Zm0-.07s0,0-.09,0L9,5H9.1A.16.16,0,0,1,9.16,5.06ZM9,5h-.2A.71.71,0,0,1,9,5S9,5,9,5Z"/><path class="cls-11" d="M8.61,6.53a.08.08,0,0,0,.07,0s.08.07.08.07l0,0H8.59l0-.06.06-.1Zm0,0s0-.08-.06-.09,0,0,0,0a0,0,0,0,0,0,0s0,0,0,0,0,0,0,0Z"/><path class="cls-11" d="M8.59,6.61h0a0,0,0,0,0,0,0Zm0,0s.07,0,.06-.08,0,0,0,0l0,0Z"/><path class="cls-11" d="M8.53,6.61s0,0,0,0,0,0,0,0,0,0,0,0-.05,0-.05,0Z"/><path class="cls-11" d="M8.59,6.57l-.06,0s0,0,0,0h0l0,0h0s0,0,0,0Z"/><path class="cls-11" d="M8.54,6.59s-.06.09-.09.09,0-.13,0-.13l0,0,0,0Z"/><path class="cls-11" d="M8.43,6.53l.09,0s0,0-.07,0S8.43,6.53,8.43,6.53Z"/><path class="cls-38" d="M8.22,6.66s0,0,0,0a.1.1,0,0,0,.07,0l-.08,0Z"/><path class="cls-39" d="M8.22,6.66h0v0a.05.05,0,0,0,0,0h0a.1.1,0,0,0,.07,0h0l-.08,0,0,0h0l0,0,.08,0h0a.09.09,0,0,1-.06,0h0s0,0,0,0v0h0Z"/><path class="cls-38" d="M8.25,6.65s0,0,.06,0a.11.11,0,0,0,.08,0l-.07-.06Z"/><path class="cls-39" d="M8.25,6.65h0s0,0,.06,0h0a.11.11,0,0,0,.08,0h0l-.08-.06-.07.07h0l.07-.07.07.06h0a.12.12,0,0,1-.08,0H8.25Z"/><path class="cls-39" d="M8.25,6.65l.05,0H8.25Z"/><path class="cls-38" d="M8.31,6.61s0,0,.06,0,.05,0,.05,0l-.05-.07-.06.05Z"/><path class="cls-39" d="M8.31,6.61h0v0l0,0h0s0,0,0,0h0l-.05-.08-.06.06h0l.06-.05.05.07h0s0,0-.05,0h0a.09.09,0,0,1,0,0h0Z"/><path class="cls-39" d="M8.32,6.62s0,0,0,0h0l0,0v0Zm-.09,0a.07.07,0,0,0,0,0s.05,0,.05,0H8.23Z"/><path class="cls-11" d="M8.42,6.53s.06,0,.06.08,0,.07,0,.07l-.07-.07,0,0Zm-.2,0s0,0,0,0,0,.06,0,.07l0,0Z"/><path class="cls-11" d="M8.22,6.56s0,0,0,0a.07.07,0,0,0,0,0l0,0Z"/><path class="cls-11" d="M8.24,6.6s-.05,0-.05,0,0,0,0,0,0,0,0,0l0,0Zm0-.13h0a0,0,0,0,0,0,0l0,.05.07,0Z"/><path class="cls-11" d="M8.26,6.52s0,0-.06,0,0,.05,0,.05.07,0,.07,0Z"/><path class="cls-11" d="M8.31,6.61l-.06,0s0,0,0-.05,0,0,.06,0S8.31,6.61,8.31,6.61Zm0-.2h0s-.06,0-.06.07a.08.08,0,0,0,0,.07l.08,0Z"/><path class="cls-11" d="M8.29,6.58s0,0,0-.06a.11.11,0,0,1,.08,0s0,.06,0,.06,0,0-.06,0Z"/><path class="cls-11" d="M8.37,6.57a.07.07,0,0,1,0,0s0,0-.05,0,0,0,0,0l0,0Z"/><path class="cls-11" d="M8.33,6.5a0,0,0,0,0,0,0,.05.05,0,0,0,0,0,0,0,0,0,0,.05,0s0,0,0,0,0,0,0,0S8.37,6.47,8.33,6.5Z"/><path class="cls-38" d="M8.41,6.4s0,0-.05,0a.07.07,0,0,0,0,.06v0l0,0s0,0,0,0v0S8.41,6.4,8.41,6.4Z"/><path class="cls-39" d="M8.41,6.4s0,0-.05,0a.07.07,0,0,0,0,0v0l0-.05Z"/><path class="cls-11" d="M9.22,7h0l.05,0V7l0,0h0l0,0Z"/><path class="cls-11" d="M9.16,7h.06s0,0,0,0h0l0,0,0,0V7Zm.3,0s0,0,0,0l0,0V7h0l0,0Z"/><path class="cls-11" d="M9.16,7h0a0,0,0,0,0-.05,0,.08.08,0,0,0,0,.07,0,0,0,0,0,.05,0L9.3,7H9.23a0,0,0,0,1,0,0s0,0,0,0V7Z"/><path class="cls-11" d="M9.25,7l0,0h0v0l.05,0,0,0v0Zm.26,0,0,0h0l0,0v0h.05l0,0Z"/><path class="cls-11" d="M9.32,7l0,0,0,0,0,0h0l.06,0V7Zm.23,0V7h0l0,0h0l0,0h0l0,0Z"/><path class="cls-11" d="M9.45,7.09H9.5a.06.06,0,0,0,0,0h.05s0,0,0,0l.05-.07h0a0,0,0,0,0,0,0H9.55s0,0,0,0h0l0,0h0a.07.07,0,0,1,0,0h0V7L9.35,7s0,0,0,0l0,0s0,0,0,0a.11.11,0,0,1-.05,0l0,0a.05.05,0,0,0,0,0s0,0,0,0a.07.07,0,0,0,.08,0,0,0,0,0,0,0,0h0l.07,0"/><path class="cls-11" d="M9.4,6.84v.08a.19.19,0,0,1,0,.1s-.07,0-.08,0a.21.21,0,0,1,0-.08Z"/><path class="cls-11" d="M9.33,7.08s0,0,0,0,0,0,0,0v0s0,0,0,0a0,0,0,0,0,0,0"/><path class="cls-38" d="M9,7.15s0,0,0-.05h.06s0,0,0,0V7S9,7,9,7.09a.06.06,0,0,0,0,.06Zm.13.13s0,0,0-.06,0,0,0,0a0,0,0,0,0,0,0s0,0,0,0-.06,0-.05.08a.09.09,0,0,0,.07.07Zm.45,0s.09,0,.09-.05a.07.07,0,0,0,0-.08l0,0s0,0,0,0a0,0,0,0,1,0,0S9.61,7.23,9.61,7.23Z"/><path class="cls-39" d="M9.16,7.28s-.07,0-.07-.08a.08.08,0,0,1,.05-.07s-.05,0-.05.07S9.16,7.28,9.16,7.28ZM9,7.15s0,0,0-.07.09,0,.09,0S9,7,9,7.09s0,.06,0,.06Zm.58.08h0s0,0,0,0a.07.07,0,0,0,0-.08,0,0,0,0,0,0,0l0,0a.07.07,0,0,1,0,.07.06.06,0,0,1-.06,0Z"/><path class="cls-40" d="M8.57,5.38h0v0l0,0h.11l0,.06-.09.06h0v0l0,0Z"/><path class="cls-37" d="M9.42,6.71V6.57l-.37.12.14.13Z"/><path class="cls-35" d="M8.74,6.47l0,0,0,0h0l0,0,.05,0,0,0h0Zm0,.06h0l0,0v0l0,0v0H8.76l-.12,0v0l0,0h.05Z"/><path class="cls-35" d="M8.81,6.63h0V6.42l-.1-.11,0,.07,0,.11,0,.07Z"/><path class="cls-33" d="M8.74,6.36a.07.07,0,0,0,0,0,.83.83,0,0,0,0,.18l0,0a.52.52,0,0,1,0-.21c0-.09,0,0,0,0Z"/><path class="cls-33" d="M8.81,6.44l0,0v.06s0,0,0,0,0,.06,0,.06V6.45Zm0,.24-.11,0q-.09,0-.09-.06h.12l.06,0h0l0,0v.06l-.06,0Zm-.19,0,0,0H8.59l.11,0,0,0Z"/><path class="cls-35" d="M8.6,6.63s0,0,.05,0h.09l0,0-.07,0,0,0Z"/><path class="cls-33" d="M8.85,6.58l0,0V6.48l0,0Z"/><path class="cls-34" d="M8.74,6.47l0,0,0-.08,0,0,0,0v.07l0,.06Z"/><path class="cls-35" d="M8.52,6.67s0,0,.05,0a.11.11,0,0,1,.06,0l.06,0,0,0-.13,0-.06,0Z"/><path class="cls-36" d="M8.85,6.45v.1l0,0s0,0,0,0h0l0,0a.22.22,0,0,1,0-.06s0,0,0,0h0a.58.58,0,0,1,0-.1S8.85,6.45,8.85,6.45Z"/><path class="cls-33" d="M8.62,6.65l0,0a.11.11,0,0,0,.09,0h.1s0,0,0,0l0,0h0V6.68l-.06,0Z"/><path class="cls-36" d="M8.74,6.47a1,1,0,0,1-.11-.13.33.33,0,0,1,0-.13l.08.09a.12.12,0,0,0,0,0,.87.87,0,0,0,.05.12Z"/><path class="cls-33" d="M8.69,6.78a.05.05,0,0,1,0,0,.46.46,0,0,1,.17-.1v.08l-.16.07Z"/><path class="cls-36" d="M8.7,6.72a0,0,0,0,0,0,0s0,0-.05,0l-.06,0,.06,0s0,0,0,0Zm.21,0s0,0,0,0a.18.18,0,0,1,0-.06l0,0h0s0,0,0,0-.08,0-.08,0h.06l-.07,0,0,0H8.8l.1,0Z"/><path class="cls-33" d="M8.91,6.74s0,0-.05-.12a.36.36,0,0,1,0-.14l0,0,0,.07Z"/><path class="cls-36" d="M8.92,6.55a.56.56,0,0,0,0,.1.25.25,0,0,0,0,.09A.19.19,0,0,0,9,6.8l0,0V6.65l-.06-.1Z"/><path class="cls-37" d="M9,6.64S9,6.8,9,6.8s-.05-.06-.05-.06,0,.06.05,0,0-.16,0-.16Zm-.08.1,0,0s0,0-.09,0a.23.23,0,0,1-.11,0s0,0,.11,0l.09,0Z"/><path class="cls-33" d="M8.75,6.54l0,0,0,0h0a.15.15,0,0,0,0,0,.38.38,0,0,0,0-.08Z"/><path class="cls-36" d="M8.7,6.73s0,0,0,0H8.63l-.11,0,.08,0,.08,0h0Z"/><path class="cls-37" d="M8.7,6.73H8.61l-.09,0a.23.23,0,0,0,.09,0Z"/><path class="cls-33" d="M8.73,6.53H8.66l0,0h0a.05.05,0,0,1,0,0S8.71,6.53,8.73,6.53Z"/><path class="cls-36" d="M8.63,6.43a.14.14,0,0,0,0,0l.06,0,0,0-.09,0,0-.06Z"/><path class="cls-36" d="M8.7,6.44s0,0,0,0h0l0,0h0s0,0,0,0S8.7,6.44,8.7,6.44Z"/><path class="cls-37" d="M8.91,6.35l.42-.22.2.28-.36.1H9l-.09-.06Z"/><path class="cls-34" d="M9.48,6.47l.52.45L9.94,7l-.12,0-.26-.25-.09-.1Z"/><path class="cls-34" d="M10.15,6.84l-.3-.24-.38-.28v.14l.43.4.15.06.07,0,0,0,0,0Z"/><path class="cls-41" d="M9.47,6.51s.16.17.27.26S10,7,10,6.94a0,0,0,0,0,0,0l-.53-.43v0Z"/><path class="cls-34" d="M9.85,7,9.79,7,9.73,7l-.32-.33V6.57h.05Z"/><path class="cls-37" d="M10.15,6.84s0,.09-.12.07a4,4,0,0,1-.55-.47v0a4.19,4.19,0,0,0,.56.45c.09,0,.16-.06.15-.07l0,0Z"/><path class="cls-41" d="M9.42,6.58a2.82,2.82,0,0,0,.23.26A.43.43,0,0,0,9.83,7s0,0,0,0L9.59,6.7l-.12-.12s-.05,0-.05,0Z"/><path class="cls-37" d="M9.46,6.58s.38.39.41.4.16-.05.16-.05l0,0h0s0,0-.1,0a2.73,2.73,0,0,1-.42-.38Z"/><path class="cls-34" d="M9.6,7l-.14-.16,0,0V6.67L9.7,7l0,0h0Z"/><path class="cls-37" d="M9.85,7a.08.08,0,0,1-.08,0A.17.17,0,0,1,9.7,7L9.44,6.7v0A3.67,3.67,0,0,0,9.77,7s.07,0,.07,0V7Z"/><path class="cls-37" d="M9.71,7a.06.06,0,0,1-.06,0A.08.08,0,0,1,9.6,7l-.16-.19v0A2,2,0,0,0,9.65,7a0,0,0,0,0,0,0Z"/><path class="cls-42" d="M9.53,6.44l.17.15h.07s0,0,0,0,.08.08.09.08h0l.08.07H10s-.07,0-.07,0a1.27,1.27,0,0,1,.12.1S10,6.81,10,6.81s0,0,0,0,0,0,0-.06-.08-.08-.09-.07,0,0,0,0,0,0,0-.06l-.09-.07s0,0,0,0,0,0,0,0Z"/><path class="cls-34" d="M9.26,6.88s0,.06,0,.07-.08-.11-.08-.11V6.73l.08.07,0,.08Zm.21,0V6.68l0,0h0l0,0,0,0,0,.08,0,.07h0l0,0Z"/><path class="cls-34" d="M9.42,7s0-.09,0-.09l-.05-.12v0l0,0,0,0v0l.06.11S9.4,7,9.42,7Z"/><path class="cls-37" d="M9.38,6.7a.11.11,0,0,1,0,.06s0,.09,0,.1h0l.06,0a.06.06,0,0,0,0-.06h0a.27.27,0,0,1,0-.11V6.66a.4.4,0,0,1,0,.12v0s0-.06,0-.08l0-.06V6.6h0a.12.12,0,0,0,0-.05s0-.15,0-.15l-.16.23.05.06Z"/><path class="cls-37" d="M9.38,6.68a.28.28,0,0,0,0,.12c0,.06,0,.06,0,.07a.14.14,0,0,1,0,.09l-.06-.17,0-.08h0Z"/><path class="cls-34" d="M9.36,7V6.91l0-.12-.07-.06,0-.05v.1a.76.76,0,0,0,.08.13L9.36,7Z"/><path class="cls-37" d="M9.12,6.72a.2.2,0,0,1,0,0v0l0,.09s0,.08.06.07a.08.08,0,0,0,0,0l0,0a1.77,1.77,0,0,1-.06-.17l0,0A.08.08,0,0,1,9.12,6.72Zm.17.14,0-.08s0,0,0,0v0l0,0,0,0a.12.12,0,0,1,0,0A.35.35,0,0,1,9.29,6.86Z"/><path class="cls-43" d="M9.19,6.78l0,.07.06.07-.06-.07,0-.07Z"/><path class="cls-37" d="M9.3,6.74s0,0,0,0h0a0,0,0,0,1,0,0s0,0,0,0a.2.2,0,0,1,0,0Zm0,0a1.13,1.13,0,0,1,.06.14.32.32,0,0,1,0,.08.12.12,0,0,0,0-.06l-.05-.13s0,0,0,0Z"/><path class="cls-34" d="M9.36,6.68v-.2l-.07-.16s0,0,0,0a.12.12,0,0,1-.08,0,.35.35,0,0,1,0,.07.18.18,0,0,0,0,0l.13.25Z"/><path class="cls-44" d="M9.09,6.78a.07.07,0,0,0,0,0s0,0,0-.08-.18-.24-.2-.25a3.27,3.27,0,0,0,.17.31Z"/><path class="cls-44" d="M9.2,6.69s0,.08,0,.09S9,6.54,9,6.51s-.11-.07-.11-.09.12,0,.12,0l.23.22a0,0,0,0,1,0,0Z"/><path class="cls-37" d="M9.09,6.78a.13.13,0,0,1,0-.06.43.43,0,0,0,0,0l-.14-.2-.06,0a.2.2,0,0,1,0,.05h0a.84.84,0,0,0,.1.15Z"/><path class="cls-34" d="M9.29,6.75s0-.07,0-.09-.11-.24-.11-.24h0l-.06,0,0,0a.54.54,0,0,1,0,.08v0l.08.15.14.13Zm.12-.13,0,0V6.47l-.07-.23h0l0,0,0,.14.07.2V6.6l0,0Z"/><path class="cls-37" d="M9.19,6.67a.65.65,0,0,1-.09-.11l0-.08H9l0,0s0,0,.08.14.15.09.15.09Z"/><path class="cls-44" d="M9.36,6.7s0-.14,0-.22-.07-.16-.07-.16l.07.19c0,.06,0,.09,0,.09s0,0,0-.08a.23.23,0,0,0,0-.07s.08.22.05.22-.13-.25-.14-.26h0s.1.31.17.28Z"/><path class="cls-34" d="M9.43,6.1l0,.11,0,.11v.09s0,.19,0,.19a0,0,0,0,1,0,0l0-.21-.05-.21,0,0v0h0Z"/><path class="cls-44" d="M9.29,6.75s0,0,0,0,0,0,0,0a.36.36,0,0,1,0-.07l0,0s0,0,0,0-.11-.16-.11-.16h0S9.19,6.76,9.29,6.75Z"/><path class="cls-37" d="M9.23,6.63a.38.38,0,0,0,0-.08.85.85,0,0,0-.06-.13h0l-.06,0a1.2,1.2,0,0,0,.06.12l.08.12Zm.08-.06a.67.67,0,0,0-.06-.16.33.33,0,0,0-.06-.11v.09a.1.1,0,0,1,.06.06l.06.12Zm.1-.15a.49.49,0,0,0,0-.14.91.91,0,0,0,0-.12v0h0s0,.06,0,.06V6.12h0a0,0,0,0,1,0,0s0,0,0,0h0a.2.2,0,0,1,0,.05v0a.29.29,0,0,0,0,.09.43.43,0,0,1,0,.1Zm.08,0a.52.52,0,0,0,0-.21.33.33,0,0,0-.05-.11h0a.49.49,0,0,1,.06.14c0,.07,0,.17,0,.17Zm-.13.07a1.19,1.19,0,0,0,0-.17l0-.09,0,0s0,.07,0,.09v0l0,.06a.49.49,0,0,1,0,.1Z"/><path class="cls-40" d="M9.43,6.64s0-.15,0-.18l-.07-.22s.07.25.07.27,0-.08,0-.08,0,.17,0,.17,0,0,0,0v0a0,0,0,0,0,0,0Z"/><path class="cls-40" d="M9.46,6.57s0-.14,0-.21,0-.18,0-.18a1.3,1.3,0,0,1,0,.18c0,.1,0,.23,0,.23a0,0,0,0,1,0,0v0a0,0,0,0,0,0,0Z"/><path class="cls-45" d="M9.22,6.73s0,.06,0,.06-.08,0-.09-.08.06.07.08.07,0-.07,0-.08,0,0,0,0Z"/><path class="cls-35" d="M9.35,6.06s0,0,.06,0A.12.12,0,0,0,9.46,6a.07.07,0,0,0,0-.06.09.09,0,0,1,0,.06s0,.11-.07.12,0,0,0,0Z"/><path class="cls-36" d="M9.3,5.94a.59.59,0,0,1,.06.12c0,.06,0,.08,0,.09s0,0,0,0a1.67,1.67,0,0,1,0-.18Z"/><path class="cls-46" d="M8.6,6l.27.38L9.2,6,9,5.81Z"/><path class="cls-34" d="M8.94,5.78l0,.06L9,6,9,6l.06,0,0,0V5.94h0l0,0,0,0,0-.07V5.78l-.07-.11,0,0h0l0,0L9,5.76l0,0Z"/><path class="cls-47" d="M9.07,6s0,0,0,0a.86.86,0,0,0,0-.16.53.53,0,0,0,0-.11.38.38,0,0,1,0,.17c0,.1,0,.12,0,.13Z"/><path class="cls-47" d="M9.09,5.89s0,.06.06,0,0-.1,0-.13l0-.08h0l0,.08s0,.13,0,.15-.07,0-.07,0v0Z"/><path class="cls-36" d="M9,5.93a0,0,0,0,1,0,0H9V6l0,0,0,0H9L9,6,9,6V5.93Z"/><path class="cls-35" d="M9.05,6.48a.09.09,0,0,1-.09,0l-.17-.16,0-.08h.05l.1,0,0,0,.11-.06.07,0h.14l0-.07a.38.38,0,0,1,.05.11.37.37,0,0,1,0,.15l-.07,0s0,.15,0,.15-.09,0-.09,0,0,.13,0,.13a.21.21,0,0,1-.13-.07S9.09,6.46,9.05,6.48Z"/><path class="cls-36" d="M9,6.31l0,0s0,.08,0,.09,0,0-.06-.08a.73.73,0,0,1-.05-.09ZM9.3,6s0,.2,0,.21-.09-.07-.1-.08L9.12,6l0,0h0l0,0L9.3,6Z"/><path class="cls-36" d="M9,6.38s0,0,0,0l-.08-.08L8.77,6.2l0,0,0,0h0a1.31,1.31,0,0,1,.15.12.49.49,0,0,1,0,.11Zm.2,0s-.1-.06-.13-.11a.61.61,0,0,1-.09-.13l0,0h0a2.92,2.92,0,0,1,.21.28Zm0-.09-.07-.06a.1.1,0,0,1,0-.07s.09.12.08.13Zm.05,0a.42.42,0,0,1-.1-.13c0-.05,0-.06-.05-.06h0l0,0,0,0,.1.21s0,0,0,.06Z"/><path class="cls-33" d="M9,6.44s0,0,0,0a.62.62,0,0,1-.25-.2L8.6,6.14l0,0,.24.28L9,6.44Z"/><path class="cls-36" d="M9,6.44s0,0,0,0a.42.42,0,0,1-.17-.14.57.57,0,0,1-.13-.18v0h0l.16.25L9,6.44Z"/><path class="cls-34" d="M9.12,6.34,9,6.26a.46.46,0,0,1-.1-.14s0,0,0,0V6l0,0,.06.07,0,0s0,.09,0,.1l-.06,0s.06.11,0,.12Zm-.1,0s0,0,0,0,0,0,0,0l-.05-.07s0,.06,0,.06a.39.39,0,0,1-.08-.09l-.06-.09a.09.09,0,0,0,0-.06v0l.09.1h0l.06.1,0,0Zm-.33-.15a.88.88,0,0,0,.13.19A.45.45,0,0,0,9,6.44L8.75,6.2l-.06,0Zm.52.07-.07-.09A.17.17,0,0,1,9.1,6V5.93A.59.59,0,0,1,9.19,6s0,.08,0,.09-.06,0-.06,0S9.22,6.22,9.21,6.23Zm.09-.08s-.05,0-.06-.06a.32.32,0,0,1,0-.08l0-.08V5.85h0l0,.06a.24.24,0,0,1,0,.1A.61.61,0,0,1,9.3,6.15Zm-.57.2a.84.84,0,0,1-.1-.15l0-.07h0a.44.44,0,0,0,.12.18c.1.1.12.1.12.1s0,.06,0,.08l-.14-.15Z"/><path class="cls-37" d="M8.84,6.47l-.15-.16a1.14,1.14,0,0,1-.11-.17l0,0a1,1,0,0,0,.09.18l.14.17Zm.12,0a2,2,0,0,1-.15-.15.48.48,0,0,1-.08-.11l0,0,.05.08Zm0-.17a.79.79,0,0,1-.08-.11.45.45,0,0,1,0-.09l.09.09h0a.07.07,0,0,0,0,0l0,.06ZM9,6a.2.2,0,0,1,0,.08,0,0,0,0,1,0,0L9,6.16a.14.14,0,0,0,0,0l0-.06a.13.13,0,0,1,0-.07s.06,0,.07,0l.06.07a.28.28,0,0,0,0-.08Z"/><path class="cls-37" d="M9.18,6.14l0-.11,0-.12V6a.15.15,0,0,1,0,.08s0,0,0,0,0,0,0,0h0s0,0,0,0l0,.06s0,.06,0,.06Z"/><path class="cls-37" d="M9.09,5.91s.05,0,.08,0,0-.1,0-.1h.05s0,0,0,0a1.09,1.09,0,0,1,.08.14.43.43,0,0,1,0,.14l-.07-.14c0-.07,0-.1,0-.09a.08.08,0,0,0,0,.07l0,.09,0,.09,0-.06s0,0,0,0,0,0,0,0H9.1v0Z"/><path class="cls-48" d="M8.92,6.15,9,6.24l0,.07L9,6.24a.49.49,0,0,1,0-.09Z"/><path class="cls-36" d="M9.25,6.17h0a.11.11,0,0,0,0,.06l0,0v0s0,0,0,0Z"/><path class="cls-35" d="M8.65,5.8l0,0,0,.08V6a.5.5,0,0,0,.06.08s.08.1.1.1a.13.13,0,0,0,0-.09V6l.05.06s.05.06.06.06l0-.09a2,2,0,0,0-.09-.26l0,0Z"/><path class="cls-33" d="M8.87,6l0,.09a.11.11,0,0,1,0,.06A.19.19,0,0,0,9,6.06,1.26,1.26,0,0,0,9,5.9c0-.1,0-.13,0-.13l0,0-.05.1V6ZM8.7,6s0,.09,0,.13,0,.08,0,.08a.28.28,0,0,0,0-.11.35.35,0,0,1,0-.14c0-.1,0-.11,0-.11L8.7,6Z"/><path class="cls-49" d="M8.56,5.76s-.08.11-.07.17,0,.05,0,.11,0,.14,0,.14,0,0,0,0V5.76Z"/><path class="cls-33" d="M8.56,5.77a.36.36,0,0,0-.06.17s0,0,0,.1a.53.53,0,0,1,0,.14l0,0,.05,0,0-.06,0,0,0,0v-.1l0-.08v0Z"/><path class="cls-50" d="M8.93,6h0l0,0v0Z"/><path class="cls-35" d="M8.58,5.78A.58.58,0,0,0,8.53,6a.72.72,0,0,0,.05.17s0,0,0,0,0-.22,0-.22l0-.07v0Z"/><path class="cls-36" d="M8.69,5.81v0l0,.05a.17.17,0,0,0,0,.07l0,0,0,0s0,0,0,.06a.14.14,0,0,0,0,0,.22.22,0,0,0,0,.06.18.18,0,0,1,0-.06V6l0,.06a.13.13,0,0,1,0,0s0,0,0,0,0,0,0,0a.2.2,0,0,1,0-.11s0,0,0,0l0-.06Z"/><path class="cls-50" d="M8.92,6h0l0,0h0Z"/><path class="cls-36" d="M8.61,6s0,0,0,0a.1.1,0,0,0,0,0,.54.54,0,0,1,0-.08.21.21,0,0,1,0-.06s0,0,0,0a.18.18,0,0,1,0-.06.11.11,0,0,0,0,0l0,0,0,0,0,0,.05-.07a0,0,0,0,0,0,0h0s0,0,0,0l0,0s0,0,0,.08,0,.08,0,.11Zm.23-.21a.35.35,0,0,1,0,.06l0,0a.18.18,0,0,0,0,.06,0,0,0,0,1,0,0l0,0,0,0a.2.2,0,0,0,0,.06s0,0,0,0h0l0,0V6s0,0,0,0a.18.18,0,0,1,0-.06l0,0,0,0v0s0,0,0-.07,0-.05,0-.06,0,0,0,0l-.09.06Z"/><path class="cls-46" d="M9.12,5.72a.28.28,0,0,0,0,.08.41.41,0,0,0,0,.1l0-.09s0-.09,0-.09,0,0,0,0a.36.36,0,0,0,0,.1s0,0,0-.06l0,0a.08.08,0,0,0,0,0,.2.2,0,0,0,0,.07l0,0H9a.13.13,0,0,0,0,0l0,0,0,0H9A.17.17,0,0,0,9,6l0,.07A.16.16,0,0,1,9,6a.5.5,0,0,1,0-.2.15.15,0,0,1,0,0,1,1,0,0,0,0-.12.37.37,0,0,0,0,.11,0,0,0,0,0,0,0Zm-.22,0,0,0a0,0,0,0,1,0,0l0,0s-.07.05-.08,0v0l.06-.05,0,0v0Zm-.27.08s0,.06,0,.06.09-.07.09-.07a0,0,0,0,0,0,0v0s-.08.08-.1.08A0,0,0,0,1,8.63,5.78Zm0-.07v.07s-.06,0-.07,0v0h0l0,0Zm.51-.08,0,.08,0,.07-.05,0,0,0a.1.1,0,0,0,0,0v0Z"/><path class="cls-50" d="M8.55,5.74h.06l0,0a.35.35,0,0,0,0,.06s0,0,0,0a.07.07,0,0,0,.06,0l0,0a.15.15,0,0,0,0,.07s0,0,.06,0l.07-.07a0,0,0,0,1,0,0l0,0,0-.13v0l0,0-.05,0v0l0,0,0,0h0v0h0l-.07.06h0l0,0,0,0,0,.06Z"/><path class="cls-36" d="M8.85,5.61a.32.32,0,0,1,0,.09.25.25,0,0,1,0,.09.21.21,0,0,0,.09-.1.4.4,0,0,0,0-.14l-.06.06Zm.07-.07s0,0,0,.07l0,.1,0,0s0,0,0,0a.1.1,0,0,0,0-.06s0-.07,0-.07,0,0,0,0l0,0s0,0,0,0,0,0,0,0,0-.1,0-.1l0-.1,0,0H9l-.05.08Z"/><path class="cls-33" d="M9,5.45a.3.3,0,0,1,0,.09.29.29,0,0,1,0,.1.51.51,0,0,0,0-.1.35.35,0,0,0,0-.06v0Z"/><path class="cls-34" d="M9.14,5.63v.06s0,0-.05-.07,0-.08,0-.11l0-.06h0l.06.18ZM9,5.75A.2.2,0,0,0,9,5.6a.34.34,0,0,0,0-.15.64.64,0,0,1,0,.16l-.05.1,0,0a.1.1,0,0,1,0,0,.07.07,0,0,1,0,0A.1.1,0,0,1,9,5.75Zm-.06-.2,0,0-.08.05,0-.07a.07.07,0,0,0,0,0,0,0,0,0,1,0,0h0s0,0,0,0v0l0-.06,0,.06,0,0Z"/><path class="cls-46" d="M9.12,5.41s0,0,0,.1a.41.41,0,0,1,0,.12l0-.07s0-.06,0-.07l0,0H9a0,0,0,0,0,0,0v0h.07ZM9,5.66a.49.49,0,0,0,0-.12.18.18,0,0,0,0-.09H9l0,0a.14.14,0,0,1,0,.07.27.27,0,0,1,0,.08h0a.07.07,0,0,0,0-.06s0,0,0,.06a1.05,1.05,0,0,1,0,.12Z"/><path class="cls-36" d="M8.53,5.74s0,0,.05-.08l.05-.09h0l.06,0,0-.06a.17.17,0,0,0,0,.07s0,0,0,0a.26.26,0,0,1,0,.07l0,.08a.28.28,0,0,0,0-.08s0,0,0,0l0,0,0-.06v0h0l0,0a0,0,0,0,0,0,0s0,0,0,0a0,0,0,0,0,0,0s0,0,0,0l0,0,0,0s0,0,0,.07a.59.59,0,0,0,0,.07h0a.15.15,0,0,1,0-.06.51.51,0,0,0,0-.09h0a.18.18,0,0,1-.05.07s0,.08,0,.08Z"/><path class="cls-51" d="M9.14,5.37a0,0,0,0,1,0,0H9.06v0Z"/><path class="cls-52" d="M8.65,5.45l0,.06s0,0,0,0,0,0,0,0,0-.12,0-.12h0Z"/><path class="cls-50" d="M9,5.39s0,.16-.05.16-.07-.08-.07-.08,0,.11-.06.11,0-.09,0-.1a.13.13,0,0,1,0,.07s-.08,0-.09,0,.05-.05.06-.11l0,0s0,0,0,0,.08,0,.08,0l0,0s0,0,0,0l0,0,.06,0v0Z"/><path class="cls-52" d="M8.78,5.23l.07.1h0a0,0,0,0,1,0,0,.13.13,0,0,0,0,.09.1.1,0,0,1,0,0s0,0,0,0,0,.15,0,.15,0-.07,0-.11,0,0,0,0,.05.07.08.06,0-.07,0-.08a.62.62,0,0,0,0-.1l-.15-.09v0s-.09,0-.09,0Z"/><path class="cls-36" d="M9,5.22l0,0s0,.16,0,.16S9,5.4,9,5.39s0-.08,0-.1,0-.06,0-.07v0H9Z"/><path class="cls-34" d="M9,5.18l.07.1,0,.08h0s0,0-.08,0,0-.06,0-.12a.17.17,0,0,0-.08-.09l0,0Z"/><path class="cls-46" d="M9,5.13A.28.28,0,0,1,9,5.21l.06.11a.17.17,0,0,0,.05,0h0l0,0S9,5.24,9,5.23L9,5.18l0,.05s0,.08,0,.08a.1.1,0,0,0,0,0,.28.28,0,0,0-.08-.08s0,.05,0,.08,0,.08,0,.08a.28.28,0,0,0,0-.07l0,0,0,0h.05Z"/><path class="cls-36" d="M8.81,5.24h.08a.1.1,0,0,1,0,0v0s0,0,0,0Z"/><path class="cls-52" d="M8.83,5.33a.29.29,0,0,1,0,.1.22.22,0,0,1-.05.12s0-.07,0-.1h0s0,0,0,0,0-.06,0-.07v0l.05,0Z"/><path class="cls-36" d="M8.76,5.38h0l0,0h0s0,0,0,0-.06.08-.05.08a.33.33,0,0,0,.06-.06s0,0,0,0l0,0s0,0,0,0a.35.35,0,0,0,0,.06s0,0,0-.06a.23.23,0,0,0,0-.07h0l0,0a.23.23,0,0,1,0,.07Z"/><path class="cls-50" d="M9,5.09a.06.06,0,0,1,0,.06l0,0h0l-.1,0H8.69v0h.08l.07,0,0,0H9Z"/><path class="cls-33" d="M9,5.09s0,0,0,0h0a.32.32,0,0,1-.09,0l-.08,0s0,0,0,0a.2.2,0,0,1,.1,0l.1,0Z"/><path class="cls-34" d="M8.69,5.06h0s0,0,0,0h0Z"/><path class="cls-50" d="M8.88,5.18s0,0,0,.06l-.07,0-.11,0-.05,0h0l0,0v0h.07l.07,0Z"/><path class="cls-50" d="M8.81,5.23s.06.07,0,.1l-.15-.09-.05.08-.11-.05.1-.09v0h.06l.08,0Z"/><path class="cls-33" d="M8.78,5.11l.08,0a.14.14,0,0,0,.07,0s0,0,0,0l-.05,0-.06,0Z"/><path class="cls-34" d="M8.69,5.08l.06,0h0s0,0,0,0h0s0,0,0,0Z"/><path class="cls-33" d="M8.89,5.22l0,0H8.82s0,0-.07,0l-.07,0h0l.08,0,.07,0,0,0Zm-.14,0v.1l0,0h0s0,0,0,0l-.05,0a.08.08,0,0,1,0,0,0,0,0,0,0,0,0Z"/><path class="cls-34" d="M8.67,5.14h.1l.07,0,.05,0-.05,0-.08,0H8.65s0,0,0,0A0,0,0,0,0,8.67,5.14Z"/><path class="cls-33" d="M8.85,5.32s0,0,0,0a.12.12,0,0,1-.08,0l0,0-.05,0s0,0,0,0l.09,0a.16.16,0,0,1,.06.05Z"/><path class="cls-34" d="M8.85,5.32a.27.27,0,0,0-.12-.09h0l-.06,0h0l0,0a.11.11,0,0,1,.06,0s0,0,0,0,0,0,0,0,0,0,0,0a0,0,0,0,1,0,0s0,0,0,0,0,0,0,0l.08,0s.05,0,.06,0Z"/><path class="cls-50" d="M8.7,5.24a.12.12,0,0,1,.07.1c0,.07-.06.06-.06,0s0,0,0,0,0,0,0,0a.07.07,0,0,0,0-.06Z"/><path class="cls-53" d="M8.4,5.07s0,0,0,0a.23.23,0,0,1-.06.11c-.06.06-.08.06-.08.09a0,0,0,0,0,0,0,1.43,1.43,0,0,0,.11-.15l0-.09v0Z"/><path class="cls-50" d="M8.65,5a.19.19,0,0,1,0,.13c0,.08-.12.15-.12.15l-.16.11H8.31l0,0v0l0,0,.06-.06,0,0,0-.06a.06.06,0,0,0,0,0v.11l0,0,0,0s0,0,0,0a.37.37,0,0,0,0-.09V5h0s0,0,0,0v.07l0,0,0,0a.11.11,0,0,0,0,0Z"/><path class="cls-40" d="M8.67,5.38s0,0,0,0,0,0,0,0v0l0,0h0l0,0Z"/><path class="cls-33" d="M8.64,5.38h0a0,0,0,0,0,0,0s0,0,0,0,0,0,0,0,0,0,0,0,0,0,0,0h0Z"/><path class="cls-40" d="M8.41,5.26h.05l.07,0,.05,0a.22.22,0,0,0,.08-.13.23.23,0,0,0,0-.12.15.15,0,0,1,0,.2.28.28,0,0,1-.09.1s.08,0,.09,0,0,0,0,.06,0,0,.05,0-.05,0-.1,0a.11.11,0,0,0-.06,0s0,0-.05,0l-.08,0s-.09,0-.1,0l0,0s.05,0,.05,0Z"/><path class="cls-33" d="M8.59,5.06A.16.16,0,0,0,8.64,5a.1.1,0,0,0,0,0,.07.07,0,0,1,0,.06s0,0-.05.05Z"/><path class="cls-40" d="M8.58,5s0,.11,0,.15a.64.64,0,0,1-.16.1.34.34,0,0,0,.13-.11.27.27,0,0,0,0-.11V5Z"/><path class="cls-46" d="M8.46,5.26h.06l.06,0,0,0,0,0a0,0,0,0,1,0,0Zm.09-.13a.16.16,0,0,0,0-.11c0-.08,0-.07,0-.07a.12.12,0,0,1,0,.08.39.39,0,0,1,0,.1Zm0,0a.11.11,0,0,0,.06,0,.18.18,0,0,0,0-.06s0,0,0,0Zm0,.23a.07.07,0,0,1,0,0s0,0,0,0a0,0,0,0,0,0,0ZM8.5,5.3l.09,0,.07,0a.23.23,0,0,1-.07.06.15.15,0,0,1-.08,0l.09,0a.28.28,0,0,1-.1,0Z"/><path class="cls-7" d="M8.4,5.22s0,0,0,0v0a.05.05,0,0,1,0,0H8.33"/><path class="cls-54" d="M8.4,5.22a.05.05,0,0,1,0,0,.06.06,0,0,1,0,0,.05.05,0,0,1,0,0h0"/><path d="M8.38,5.26h0a0,0,0,0,1,0,0H8.35"/><path class="cls-55" d="M8.38,5.28h0Z"/><path class="cls-33" d="M8.42,5.17a.15.15,0,0,0,.05-.08.17.17,0,0,0,0-.08l0,0v.1l0,0a.5.5,0,0,0,0-.16.19.19,0,0,1,0,.1c0,.07,0,.08-.08.11s-.06,0-.09.11l-.06.07a.32.32,0,0,0,0-.07l0-.06,0,0Z"/><path class="cls-40" d="M8.4,5.21a.45.45,0,0,0,0-.08.13.13,0,0,0,0-.06s0,0,0,0S8.42,5.19,8.4,5.21Z"/><path class="cls-34" d="M8.48,5.14a.2.2,0,0,0,0-.07l0-.06s0,0,0,.06,0,0,0,.07Z"/><path class="cls-33" d="M8.3,5.34a0,0,0,0,1,0,0s0,0,0,0l.07-.08s0-.07,0-.11a.1.1,0,0,1,0,.1.29.29,0,0,1-.08.1s0,0,0,0a0,0,0,0,0,0,0Z"/><path class="cls-56" d="M8.64,5.46h0a.08.08,0,0,0,0,0l0,0h0a.07.07,0,0,0,0,0h0a.14.14,0,0,1,0,0Z"/><path class="cls-56" d="M8.64,5.46a.07.07,0,0,0,0,0,0,0,0,0,0,0,0l0,0h0s0,.07-.07.07Z"/><path class="cls-57" d="M8.37,5.45l0,0,0,0,.09,0,0,0,0,0H8.44Z"/><path class="cls-58" d="M8.59,5.42v0l0,0H8.42l-.07,0,0,0s0,0,0,0l0,0s0,0,0,0h0a.17.17,0,0,0-.08.11c0,.07.11.17.16.12s-.07,0-.06-.1a.13.13,0,0,1,.1-.07c.06,0,.06,0,.08,0a.09.09,0,0,1,.1,0s-.12.07-.12.07l0,0S8.61,5.46,8.59,5.42Z"/><path class="cls-59" d="M8.23,5.59a.1.1,0,0,1-.07-.09.13.13,0,0,1,.09-.11s0,0,0,0h.05l0,0s-.14.06-.14.14,0,.07,0,.07Z"/><path class="cls-60" d="M8.59,5.41h0s-.05,0-.07,0l-.09,0h0s-.09,0-.11,0,0,0,0,0h0s0,0,0,0,.12,0,.15,0l.08,0c.05,0,.09,0,.09,0Z"/><path class="cls-61" d="M8.38,5.47l0,0,.06,0-.05,0H8.38Z"/><path class="cls-58" d="M8.27,5.63a.14.14,0,0,1-.13-.11.11.11,0,0,1,0-.09c.05,0,.06,0,.06,0h0l0,0,0,0,0,0v0l0,0,.06,0,0,0Z"/><path class="cls-62" d="M8.24,5.36h0v0h0Z"/><path class="cls-58" d="M8.38,5.42l-.1,0H8.4s.11,0,.11,0-.1,0-.1,0h0l.09,0,0,0,0,0-.05,0H8.38Z"/><path class="cls-36" d="M8.24,5.56a.1.1,0,0,0,0,.05h0a.12.12,0,0,1-.1-.1h0v0l0,0,.05,0H8.3l0,0,0,0v0Z"/><path class="cls-30" d="M8.55,6.39v0h0v0Zm-.12-.86,0,0h0l0,0Z"/><path class="cls-29" d="M8.55,6.46l0,0h0l.05,0Zm0-.08H8.48l0,0h.11Zm0-.07-.06,0-.05,0h0l0,0,0,0h0Zm0-.06h0v0h0l0,0,0,0h0l0,0,0,0,0,0v0Zm-.06,0h0v0l0,.06v0h0s0-.05,0-.09V6.21Zm0,0h0v.06l0,0v0h0l0-.07a.06.06,0,0,0,0,0v0Zm0,0v0a.07.07,0,0,1,0,0,.35.35,0,0,1,0,.06h0V6.29a.32.32,0,0,0,0-.08Zm0,0h0v.06a.18.18,0,0,0,0,.06h0V6.29a0,0,0,0,0,0,0,.06.06,0,0,0,0,0Zm0,0h0v.06l0,0v0h0l0-.07a.15.15,0,0,0,0-.06h0Zm0,0h0l0,0,0,0h0a.15.15,0,0,0,.06-.06s0,0,0,0v0Zm0,0h0a.17.17,0,0,1,0,0l0,0h0l0,0a.15.15,0,0,0,0,0Zm0,0h0v0h0l0,0h0v0h0Zm0,0h0l0,0,0,0h0l0,0Zm0,0h0l0,0h0l0,0Zm0,0h0Zm0,0h0v0h0Zm0,0h0l0,0h0l0,0h0Zm.27-.32h0Zm0,0h0l0,0h0l0,0h0Zm0,0h0l0,0h0l0,0h0Zm0,0,0,0,0,0h0l0,0,0,0Zm0,0,.08,0h0a.24.24,0,0,0-.08.06Zm0,0,0,0,0,0h0l0,0,0,0Zm0,0,0,0,0,0h0a.25.25,0,0,0-.07,0Z"/><path class="cls-25" d="M8.36,5.45h0l.06.06a.21.21,0,0,1,0,.1h0a.22.22,0,0,1-.06.13,1.37,1.37,0,0,1-.18.16L8.16,6a.14.14,0,0,0,0,.09h0a.11.11,0,0,0,0,.08.08.08,0,0,0,.08,0h.15a.13.13,0,0,1,.11,0,.17.17,0,0,1,.05.14s0,.08,0,.1a.09.09,0,0,0,0,0h0a.61.61,0,0,0,0-.15.24.24,0,0,0,0-.15.13.13,0,0,0-.12,0l-.14,0h0a.16.16,0,0,1-.08,0,.19.19,0,0,1,0-.08h0a.16.16,0,0,1,0-.11c0-.05.11-.1.17-.16a.31.31,0,0,0,.12-.18v0a.2.2,0,0,0-.06-.12l-.05,0Z"/><path class="cls-23" d="M8.3,5.53h0Zm0,0h0Z"/><path class="cls-25" d="M8.36,5.59Zm0,0h0Zm0,0h0Zm0,0h0v0Zm0,0h0Zm-.3.37v0s0,0,0,0h0Z"/><path class="cls-7" d="M8.1,6.12h0Z"/><path class="cls-25" d="M8.1,6.17h0Z"/><path class="cls-7" d="M8.1,6.19h0Zm0,0h0Zm0,0v0h0v0Z"/><path class="cls-23" d="M8.14,6.31h0v0Zm0,0h0Zm.24,0h0Z"/><path class="cls-7" d="M8.44,6.39h0Z"/><path class="cls-23" d="M8.45,6.39h0Zm0,0h0Z"/><path class="cls-7" d="M8.44,6.46Zm-.38-1.3s0,0,0,0,0,0,0,0h0Z"/><path class="cls-58" d="M8.36,5.45h0Z"/><path class="cls-36" d="M8.37,5.45h0s0,0,0,0Z"/><path class="cls-63" d="M8.52,6.55h0Z"/><path class="cls-64" d="M16.72,13H12V1h4.72c.19,0,.28.1.28.3V12.7C16.91,12.9,16.81,13,16.72,13Z"/><path class="cls-65" d="M17,1V13H1V1Zm0-1H1A.94.94,0,0,0,0,1V13a.94.94,0,0,0,1,1H17a.94.94,0,0,0,1-1V1A.94.94,0,0,0,17,0Z"/></g></g></g></svg>