<svg xmlns="http://www.w3.org/2000/svg" viewBox="0 0 18 14"><defs><style>.cls-1{fill:#b5b5b5;}.cls-2{fill:#fff;}.cls-3{fill:#010957;}</style></defs><title>8</title><g id="Layer_2" data-name="Layer 2"><g id="Layer_1-2" data-name="Layer 1"><g id="_8" data-name="8"><path class="cls-1" d="M17,1V13H1V1Zm0-1H1A.94.94,0,0,0,0,1V13a.94.94,0,0,0,1,1H17a.94.94,0,0,0,1-1V1A.94.94,0,0,0,17,0Z"/><path class="cls-2" d="M17,13H1V1.6Q1,1,1.3,1H16.7q.3,0,.3.6Z"/><path class="cls-3" d="M7,1H5V6H1.3C1.1,6,1,6,1,6.1V8H5v4.4c0,.4,0,.6,0,.6H7s0-.2,0-.6V8H17V6.1c0-.07-.1-.1-.3-.1H7Z"/></g></g></g></svg>