<svg xmlns="http://www.w3.org/2000/svg" viewBox="0 0 18 14"><defs><style>.cls-1{fill:#9c232b;}.cls-2{fill:#fff;}.cls-3{fill:#b5b5b5;}</style></defs><title>16</title><g id="Layer_2" data-name="Layer 2"><g id="Layer_1-2" data-name="Layer 1"><g id="_16" data-name="16"><path class="cls-1" d="M1,13H17V1H1Z"/><path class="cls-2" d="M17,8H1V6.1C1,6,1.1,6,1.3,6H16.7c.2,0,.3,0,.3.1Z"/><path class="cls-3" d="M17,1V13H1V1Zm0-1H1A.94.94,0,0,0,0,1V13a.94.94,0,0,0,1,1H17a.94.94,0,0,0,1-1V1A.94.94,0,0,0,17,0Z"/></g></g></g></svg>