<svg xmlns="http://www.w3.org/2000/svg" viewBox="0 0 18 14"><defs><style>.cls-1{fill:#73af00;}.cls-2{fill:#ffe15a;}.cls-3{fill:#41479b;}.cls-4{fill:#f5f5f5;}.cls-5{fill:#b5b5b5;}</style></defs><title>18</title><g id="Layer_2" data-name="Layer 2"><g id="Layer_1-2" data-name="Layer 1"><g id="_18" data-name="18"><path class="cls-1" d="M16.7,13H1.3a.27.27,0,0,1-.3-.3V1.3A.27.27,0,0,1,1.3,1H16.7a.27.27,0,0,1,.3.3V12.7A.27.27,0,0,1,16.7,13Z"/><path class="cls-2" d="M8.9,3.2,3,6.8a.28.28,0,0,0,0,.5l5.8,3.5a.19.19,0,0,0,.3,0l5.8-3.5a.28.28,0,0,0,0-.5L9.1,3.3C9.1,3.2,8.9,3.2,8.9,3.2Z"/><path class="cls-3" d="M11.2,7A2.2,2.2,0,1,1,9,4.8,2.22,2.22,0,0,1,11.2,7Z"/><path class="cls-4" d="M7.1,5.9a1.42,1.42,0,0,0-.2.6,5.93,5.93,0,0,1,4.2,1.4,1.27,1.27,0,0,0,.1-.6A5.56,5.56,0,0,0,7.1,5.9Z"/><path class="cls-4" d="M9.1,7.8l.1.2h.2l-.1.1.1.2-.2-.1L9,8.3l.1-.2L9,8h.2l-.1-.2Z"/><path class="cls-4" d="M9.8,8.2l.1.1H9.8v.1H9.6V8.3H9.5Z"/><path class="cls-4" d="M8.8,7.4l.1.1H8.8v.1H8.6V7.5H8.5Z"/><path class="cls-4" d="M7.4,7.3l.1.1H7.4v.1H7.2V7.4H7.1Z"/><path class="cls-4" d="M8.6,8.2l.1.1H8.6v.1H8.4V8.3H8.3l.3-.1Z"/><path class="cls-4" d="M7.9,7.3h0v.2H7.7V7.4H7.6Z"/><path class="cls-4" d="M9.9,6l.1.1H9.9v.1H9.7V6.1H9.6Z"/><path class="cls-4" d="M7.5,6.9h0v.2H7.3V7H7.2Z"/><path class="cls-4" d="M7.8,7.8l.1.1L7.8,8v.1L7.7,8l-.1.1V8l-.1-.1Z"/><path class="cls-4" d="M10.2,8.2h0v.2H10V8.3H9.9C10.1,8.3,10.1,8.3,10.2,8.2Z"/><path class="cls-4" d="M10.4,7.8l.1.1h-.1V8h-.2V7.9h-.1Z"/><path class="cls-5" d="M17,1V13H1V1Zm0-1H1A.94.94,0,0,0,0,1V13a.94.94,0,0,0,1,1H17a.94.94,0,0,0,1-1V1A.94.94,0,0,0,17,0Z"/></g></g></g></svg>