<svg xmlns="http://www.w3.org/2000/svg" viewBox="0 0 18 14"><defs><style>.cls-1{fill:#f5f5f5;}.cls-2{fill:#ff4b55;}.cls-3{fill:#41479b;}.cls-4{fill:#b5b5b5;}</style></defs><title>22</title><g id="Layer_2" data-name="Layer 2"><g id="Layer_1-2" data-name="Layer 1"><g id="_22" data-name="22"><path class="cls-1" d="M17,5H1V1.3A.27.27,0,0,1,1.3,1H16.7a.27.27,0,0,1,.3.3Z"/><path class="cls-2" d="M16.7,13H1.3a.27.27,0,0,1-.3-.3V9H17v3.7A.27.27,0,0,1,16.7,13Z"/><path class="cls-3" d="M17,5H1V9H17Z"/><path class="cls-2" d="M4.9,10C4,9,3,8,3,7V4H7V7c0,1-1.9,2.9-2,3Z"/><path class="cls-1" d="M6,6.5l-.64.09H5.18V6.2l.18,0,.46.09L5.73,6l.09-.28-.46.09H5.18V5.66L5.5,5h-1l.32.66v.18H4.73l-.46-.09L4.36,6l-.09.28.46-.09h.09v.37H4.64L4,6.5l.09.28L4,7.06,4.64,7h.18L4.73,8.2h.54L5.18,7h.18L6,7.06l-.09-.28Z"/><path class="cls-3" d="M5,8A1.08,1.08,0,0,0,4,9s.14-.6,0-.6c-.57,0-1,.24-1,.56a9.41,9.41,0,0,0,1.86,1h.28A9.41,9.41,0,0,0,7,9c0-.32-.43-.56-1-.56,0,0,.14.6,0,.6A1.14,1.14,0,0,0,5,8Z"/><path class="cls-1" d="M7,4V6.8C7,8,5,9,5,9S3,8,3,6.8V4ZM8,3H2V7c0,2.1,3,3,3,3.2C5,10,8,9.1,8,7Z"/><path class="cls-4" d="M17,1V13H1V1Zm0-1H1A.94.94,0,0,0,0,1V13a.94.94,0,0,0,1,1H17a.94.94,0,0,0,1-1V1A.94.94,0,0,0,17,0Z"/></g></g></g></svg>