<svg xmlns="http://www.w3.org/2000/svg" viewBox="0 0 18 14"><defs><style>.cls-1{fill:#0417c8;}.cls-2{fill:#ffe15a;}.cls-3{fill:#b5b5b5;}</style></defs><title>26</title><g id="Layer_2" data-name="Layer 2"><g id="Layer_1-2" data-name="Layer 1"><g id="_26" data-name="26"><path class="cls-1" d="M17,7H1V1.45Q1,1,1.3,1H16.7q.3,0,.3.45Z"/><path class="cls-2" d="M16.7,13H1.3Q1,13,1,12.55V7H17v5.55Q17,13,16.7,13Z"/><path class="cls-3" d="M17,1V13H1V1Zm0-1H1A.94.94,0,0,0,0,1V13a.94.94,0,0,0,1,1H17a.94.94,0,0,0,1-1V1A.94.94,0,0,0,17,0Z"/></g></g></g></svg>