<svg xmlns="http://www.w3.org/2000/svg" viewBox="0 0 18 14"><defs><style>.cls-1{fill:#00b9e4;}.cls-2{fill:#3f9c35;}.cls-3{fill:#ed2939;}.cls-4{fill:#fff;}.cls-5{fill:#b5b5b5;}</style></defs><title>1</title><g id="Layer_2" data-name="Layer 2"><g id="Layer_1-2" data-name="Layer 1"><g id="_1" data-name="1"><path class="cls-1" d="M17,5H1V.44C1,.22,1.1,0,1.3,0H16.7c.2,0,.3.22.3.44Z"/><path class="cls-2" d="M16.7,13H1.3a.32.32,0,0,1-.3-.36V9H17v3.64A.32.32,0,0,1,16.7,13Z"/><path class="cls-3" d="M17,5H1V9H17Z"/><path class="cls-4" d="M9,9a2,2,0,0,0,1.6-.8,1.67,1.67,0,1,1,0-2.4A2,2,0,1,0,9,9Zm2.43-2.51-.21-.6-.21.6-.57-.28.27.58-.6.21.6.21-.27.58L11,7.51l.21.6.21-.6.58.28-.27-.58L12.33,7l-.59-.21L12,6.21Z"/><path class="cls-5" d="M17,1V13H1V1Zm0-1H1A.94.94,0,0,0,0,1V13a.94.94,0,0,0,1,1H17a.94.94,0,0,0,1-1V1A.94.94,0,0,0,17,0Z"/></g></g></g></svg>