<svg xmlns="http://www.w3.org/2000/svg" viewBox="0 0 18 14"><defs><style>.cls-1{fill:#41479b;}.cls-2{fill:#ff4b55;}.cls-3{fill:#f5f5f5;}.cls-4{fill:#b5b5b5;}</style></defs><title>4</title><g id="Layer_2" data-name="Layer 2"><g id="Layer_1-2" data-name="Layer 1"><g id="_4" data-name="4"><path class="cls-1" d="M1.1,12.9,9,7,1.1,1.1c-.1,0-.1.1-.1.2V12.7C1,12.8,1,12.9,1.1,12.9Z"/><path class="cls-2" d="M1.1,12.9a.35.35,0,0,0,.2.1H16.7a.27.27,0,0,0,.3-.3V7H9Z"/><path class="cls-3" d="M1.1,1.1A.35.35,0,0,1,1.3,1H16.7a.27.27,0,0,1,.3.3V7H9Z"/><path class="cls-4" d="M17,1V13H1V1Zm0-1H1A.94.94,0,0,0,0,1V13a.94.94,0,0,0,1,1H17a.94.94,0,0,0,1-1V1A.94.94,0,0,0,17,0Z"/></g></g></g></svg>