<svg xmlns="http://www.w3.org/2000/svg" viewBox="0 0 18 14"><defs><style>.cls-1{fill:#0d5eaf;}.cls-2{fill:#fff;}.cls-3{fill:#b5b5b5;}</style></defs><title>12</title><g id="Layer_2" data-name="Layer 2"><g id="Layer_1-2" data-name="Layer 1"><g id="_12" data-name="12"><path class="cls-1" d="M17,13H1V1H17V13Z"/><path class="cls-2" d="M5,5V8H4V5H1V4H4V1H5V4H8V5Z"/><path class="cls-2" d="M17,10H1V9H17Z"/><path class="cls-2" d="M17,12H1V11H17Z"/><path class="cls-2" d="M17,2H8V1h9Z"/><path class="cls-2" d="M17,4H8V3h9Z"/><path class="cls-2" d="M17,6H8V5h9Z"/><path class="cls-2" d="M17,8H8V7h9Z"/><path class="cls-3" d="M17,1V13H1V1Zm0-1H1A.94.94,0,0,0,0,1V13a.94.94,0,0,0,1,1H17a.94.94,0,0,0,1-1V1A.94.94,0,0,0,17,0Z"/></g></g></g></svg>