<svg xmlns="http://www.w3.org/2000/svg" viewBox="0 0 18 14"><defs><style>.cls-1{fill:#b5b5b5;}.cls-2{fill:#ff4b55;}.cls-3{fill:#f5f5f5;}</style></defs><title>25</title><g id="Layer_2" data-name="Layer 2"><g id="Layer_1-2" data-name="Layer 1"><g id="_25" data-name="25"><path class="cls-1" d="M17,1V13H1V1Zm0-1H1A.94.94,0,0,0,0,1V13a.94.94,0,0,0,1,1H17a.94.94,0,0,0,1-1V1A.94.94,0,0,0,17,0Z"/><path class="cls-2" d="M16.7,13H1.3a.27.27,0,0,1-.3-.3V1.3A.27.27,0,0,1,1.3,1H16.7a.27.27,0,0,1,.3.3V12.7A.27.27,0,0,1,16.7,13Z"/><path class="cls-3" d="M10.4,6l.5.6.7-.2a.1.1,0,0,1,.1.1l-.4.6.5.6v.1l-.7-.2-.5.6h-.1V7.4l-.7-.2V7.1l.7-.3L10.4,6C10.3,6,10.4,5.9,10.4,6Z"/><path class="cls-3" d="M7.8,9.4a2.4,2.4,0,0,1,0-4.8A2.5,2.5,0,0,1,9.1,5c.1,0,.1,0,.1-.1A3.17,3.17,0,0,0,6.9,4,3.11,3.11,0,0,0,4,6.8,3.05,3.05,0,0,0,7,10a3.37,3.37,0,0,0,2.2-.9A.1.1,0,0,0,9.1,9,2.84,2.84,0,0,1,7.8,9.4Z"/></g></g></g></svg>