<svg xmlns="http://www.w3.org/2000/svg" viewBox="0 0 18 14"><defs><style>.cls-1{fill:#ca1b2e;}.cls-2{fill:#b5b5b5;}.cls-3{fill:#ffd250;}</style></defs><title>27</title><g id="Layer_2" data-name="Layer 2"><g id="Layer_1-2" data-name="Layer 1"><g id="_27" data-name="27"><path class="cls-1" d="M16.7,13H1V1H17V13Z"/><path class="cls-2" d="M17,1V13H1V1Zm0-1H1A.94.94,0,0,0,0,1V13a.94.94,0,0,0,1,1H17a.94.94,0,0,0,1-1V1A.94.94,0,0,0,17,0Z"/><path class="cls-3" d="M9,3l.82,2.87,3-.11L10.33,7.43l1,2.81L9,8.4,6.65,10.24l1-2.81L5.2,5.76l3,.11Z"/></g></g></g></svg>